<svg width="26" height="24" viewBox="0 0 26 24" fill="none" xmlns="http://www.w3.org/2000/svg">
  <path d="M3.32984 5.19999L7.6754 7.99999L12.0065 2.13999C12.1022 2.01036 12.2285 1.9047 12.375 1.83179C12.5215 1.75889 12.6839 1.72086 12.8487 1.72086C13.0135 1.72086 13.1759 1.75889 13.3223 1.83179C13.4688 1.9047 13.5952 2.01036 13.6909 2.13999L18.022 7.99999L22.3675 5.19999C22.532 5.09424 22.7244 5.0362 22.9219 5.03273C23.1194 5.02926 23.3138 5.0805 23.4821 5.18041C23.6504 5.28032 23.7856 5.42471 23.8718 5.59653C23.9579 5.76834 23.9914 5.96039 23.9682 6.14999L22.2682 20.117C22.2386 20.3602 22.1176 20.5845 21.9282 20.7473C21.7388 20.91 21.4942 21 21.2408 21H4.45658C4.20316 21 3.95856 20.91 3.76919 20.7473C3.57981 20.5845 3.45882 20.3602 3.42917 20.117L1.72923 6.14899C1.70626 5.95947 1.73987 5.76756 1.82609 5.59591C1.91231 5.42425 2.04755 5.28003 2.21584 5.18025C2.38412 5.08048 2.57843 5.02932 2.77582 5.03281C2.97322 5.03631 3.16545 5.09432 3.32984 5.19999V5.19999ZM12.8487 15C13.3975 15 13.9238 14.7893 14.3119 14.4142C14.7 14.0391 14.918 13.5304 14.918 13C14.918 12.4696 14.7 11.9609 14.3119 11.5858C13.9238 11.2107 13.3975 11 12.8487 11C12.2999 11 11.7735 11.2107 11.3855 11.5858C10.9974 11.9609 10.7794 12.4696 10.7794 13C10.7794 13.5304 10.9974 14.0391 11.3855 14.4142C11.7735 14.7893 12.2999 15 12.8487 15Z" fill="#FCD000"/>
</svg>
