<svg xmlns="http://www.w3.org/2000/svg" viewBox="0 0 149.24 77.53"><defs><style>.cls-1,.cls-3{fill:#fff;}.cls-2{fill:#1a1a18;}.cls-10,.cls-11,.cls-12,.cls-2,.cls-3,.cls-4,.cls-5,.cls-6,.cls-7,.cls-8,.cls-9{fill-rule:evenodd;}.cls-4{fill:#f4d8b6;}.cls-5{fill:#e3000f;}.cls-6{fill:#f49732;}.cls-7{fill:#f08113;}.cls-8{fill:#c76600;}.cls-9{fill:#f8ad4d;}.cls-10{fill:#575656;}.cls-11{fill:#d9dada;}.cls-12{fill:#ea5255;}</style></defs><title>logoРесурс 1</title><g id="Слой_2" data-name="Слой 2"><g id="_1" data-name="1"><circle class="cls-1" cx="38.76" cy="38.76" r="38.06" transform="translate(-7.76 67.76) rotate(-76.93)"/><path class="cls-2" d="M38.76,0A38.75,38.75,0,1,1,11.35,11.35,38.68,38.68,0,0,1,38.76,0ZM65.17,12.36a37.34,37.34,0,1,0,10.94,26.4A37.22,37.22,0,0,0,65.17,12.36Z"/><path class="cls-2" d="M23.29,55.26c-4.12,1.85-9.48,6-11.89,11A39.33,39.33,0,0,0,78.1,38.05c0-.29,0-.57,0-.85l-8.75,2.71c-1.56,7.68-7.5,14.18-17,15.45-.4-.7,1.41-2.73,1-3.18-1.32-1.61-2.31-1.32-4-.35s-4.1,2.64-6.33,3.86A18.68,18.68,0,0,1,36.59,58c-2.15.3-4.38.13-5.84.28a5.49,5.49,0,0,0-.88.17,1,1,0,0,0-.19-.61,11.27,11.27,0,0,0-3.21-2.72C25.37,54.45,24.75,54.45,23.29,55.26Z"/><path class="cls-3" d="M51.76,52.61a.6.6,0,0,0-.25-.13,4.27,4.27,0,0,0-1.43.6c-2.15,1.24-4.17,2.68-6.36,3.88a20.24,20.24,0,0,1-6.94,2.43,25,25,0,0,1-3.35.21c-.83,0-1.71,0-2.52.08a3.34,3.34,0,0,0-.63.12l-1.89.55,0-1.83a10.9,10.9,0,0,0-2.68-2.19,1.94,1.94,0,0,0-.61-.26,3.13,3.13,0,0,0-1.14.45l-.06,0-.06,0A24.7,24.7,0,0,0,13.19,66,37.89,37.89,0,0,0,76.64,39.16L70.57,41c-2.12,8.7-9.11,14.56-18.07,15.75l-1,.13-.49-.84c-.58-1-.05-2.1.44-3C51.57,53,51.67,52.78,51.76,52.61Z"/><path class="cls-4" d="M51.11,53.85a8.07,8.07,0,0,0-1,.52c-2.15,1.23-4.17,2.68-6.36,3.87a20.25,20.25,0,0,1-6.94,2.44,28.83,28.83,0,0,1-3.35.21c-.83,0-1.71,0-2.52.08a3.32,3.32,0,0,0-.63.11l-1.89.55,0-1.29h0v-.58a10.92,10.92,0,0,0-2.65-2.15,1.73,1.73,0,0,0-.61-.26,3,3,0,0,0-1.14.45l-.06,0-.06,0A25,25,0,0,0,13.7,66.46a37.89,37.89,0,0,0,62.88-26l-6,1.86C68.45,51,61.46,56.89,52.5,58.07l-1,.13-.49-.83a2.1,2.1,0,0,1-.16-1.64A2.68,2.68,0,0,1,51.11,53.85Z"/><path class="cls-5" d="M42.21,49.39c7.24-.64,13.34,1.65,13.62,5.12s-5.37,6.78-12.62,7.42-13.35-1.65-13.63-5.11S35,50,42.21,49.39Z"/><path class="cls-2" d="M42.17,48.75l.23,0a22.57,22.57,0,0,1,9.52,1.1c2.65,1,4.37,2.62,4.55,4.6v0c.15,2-1.32,3.89-3.81,5.35a23,23,0,0,1-9.4,2.74l-.24,0a22.6,22.6,0,0,1-9.53-1.1c-2.65-1-4.37-2.62-4.55-4.59v-.06c-.15-2,1.32-3.88,3.81-5.35a23,23,0,0,1,9.4-2.74ZM42.48,50l-.22,0A21.58,21.58,0,0,0,33.4,52.6c-2.07,1.21-3.29,2.69-3.18,4.16v0c.13,1.44,1.54,2.67,3.73,3.5a21.14,21.14,0,0,0,9,1l.23,0A21.83,21.83,0,0,0,52,58.73c2.06-1.22,3.28-2.7,3.17-4.17v0c-.13-1.44-1.54-2.68-3.73-3.51a21.11,21.11,0,0,0-9-1Z"/><path class="cls-5" d="M27,52.69c-3.66,0-6.62,1.91-6.62,4.28s3,4.28,6.62,4.28,6.62-1.92,6.62-4.28S30.63,52.69,27,52.69Z"/><path class="cls-2" d="M27,53.33a8.12,8.12,0,0,0-4.34,1.15,2.7,2.7,0,0,0,0,5l0,0A8.18,8.18,0,0,0,27,60.6a8.06,8.06,0,0,0,4.33-1.15h0a2.7,2.7,0,0,0,0-5A8.09,8.09,0,0,0,27,53.33Zm-5,.07A9.38,9.38,0,0,1,27,52a9.38,9.38,0,0,1,5,1.36,4,4,0,0,1,0,7.13h0a9.32,9.32,0,0,1-5,1.36,9.4,9.4,0,0,1-5-1.33l0,0a4,4,0,0,1,0-7.13Z"/><path class="cls-6" d="M79.2,33.53c-.32.48-.93.24-.55-.47a9,9,0,0,0,.65-5.41,1.45,1.45,0,0,0-2.87.4,8.1,8.1,0,0,1-.29,3.48c-.19.46-.72.37-.64-.09a8.64,8.64,0,0,0-.4-5.27,1.48,1.48,0,0,0-2.75,1,7.43,7.43,0,0,1,.44,4.29.62.62,0,0,1-1.05.23,5.31,5.31,0,0,0-4.19-1.33,1.85,1.85,0,0,0-1.67,1.82,1.82,1.82,0,0,0,1.82,1.82,4.86,4.86,0,0,1,3.41.81,2.49,2.49,0,0,1-.59,4.22c-2,.79-3.66-.62-3.91-2.61a1.8,1.8,0,0,0-3.52-.29,5.47,5.47,0,0,0,1.41,4.75c3.16,3.31,9.23,3.3,12.93.93,3.41-2.19,4.9-6.21,5.18-10.42a1.4,1.4,0,0,0-2.78-.29A5.58,5.58,0,0,1,79.2,33.53Z"/><path class="cls-2" d="M79.69,33.94a1.13,1.13,0,0,1-.86.48,1,1,0,0,1-.5-.13l-.06,0a.86.86,0,0,1-.29-.36,1.27,1.27,0,0,1,.11-1.13,7.11,7.11,0,0,0,.66-2.38,7.86,7.86,0,0,0-.07-2.59.74.74,0,0,0-.55-.6.85.85,0,0,0-.39,0,.88.88,0,0,0-.36.14.69.69,0,0,0-.31.68,10.6,10.6,0,0,1,.05,1.73,7,7,0,0,1-.38,2l0,.07a1.05,1.05,0,0,1-.7.63,1.07,1.07,0,0,1-.47,0h0a.83.83,0,0,1-.42-.25.92.92,0,0,1-.25-.87v0a8.62,8.62,0,0,0,.19-2.63,6.24,6.24,0,0,0-.53-2.2.8.8,0,0,0-.7-.49,1.09,1.09,0,0,0-.4.07,1,1,0,0,0-.33.22A.7.7,0,0,0,73,27a13,13,0,0,1,.54,2.06,6.22,6.22,0,0,1-.09,2.6.56.56,0,0,1,0,.12,1.63,1.63,0,0,1-.21.34,1.18,1.18,0,0,1-.62.4,1.21,1.21,0,0,1-.79-.05,1.27,1.27,0,0,1-.42-.26,5.16,5.16,0,0,0-1.78-1,4.37,4.37,0,0,0-1.92-.17,1.31,1.31,0,0,0-.81.4,1.13,1.13,0,0,0-.3.78,1.15,1.15,0,0,0,.35.83,1.16,1.16,0,0,0,.83.34h.17a5.12,5.12,0,0,1,3.64,1,3,3,0,0,1,.94,1.27,3.11,3.11,0,0,1,.19,1.62,3.19,3.19,0,0,1-.64,1.5,3,3,0,0,1-1.25.93,4.33,4.33,0,0,1-.94.24,3.17,3.17,0,0,1-2.2-.52,3.79,3.79,0,0,1-1.36-1.75,4.79,4.79,0,0,1-.28-1.1v0a1.13,1.13,0,0,0-.38-.71,1.15,1.15,0,0,0-.77-.29,1.1,1.1,0,0,0-.69.23,1.09,1.09,0,0,0-.42.6,3.68,3.68,0,0,0,.09,2A5.36,5.36,0,0,0,65,40.49a8.45,8.45,0,0,0,5.58,2.38,11,11,0,0,0,6.55-1.55,9.54,9.54,0,0,0,3.37-3.87A16,16,0,0,0,82,31.39a.68.68,0,0,0-.36-.69.9.9,0,0,0-.33-.09,1,1,0,0,0-.35,0,.65.65,0,0,0-.47.58,10.49,10.49,0,0,1-.24,1.5h0a4,4,0,0,1-.48,1.15.18.18,0,0,1,0,.07Zm.24-6.43a8.2,8.2,0,0,1,.17,2.1,1.79,1.79,0,0,1,.45-.19,2,2,0,0,1,.83-.09,2.09,2.09,0,0,1,.81.23,1.91,1.91,0,0,1,1.06,1.92A17.32,17.32,0,0,1,81.61,38a10.81,10.81,0,0,1-3.83,4.39,12.37,12.37,0,0,1-7.33,1.75A9.71,9.71,0,0,1,64,41.38a6.7,6.7,0,0,1-1.47-2.62A5,5,0,0,1,62.48,36a2.46,2.46,0,0,1,2.34-1.75,2.45,2.45,0,0,1,1.62.62,2.39,2.39,0,0,1,.8,1.5v0a3.18,3.18,0,0,0,.19.78,2.5,2.5,0,0,0,.89,1.16,1.91,1.91,0,0,0,1.32.31,2.46,2.46,0,0,0,.63-.17A1.59,1.59,0,0,0,71,38a1.9,1.9,0,0,0,.27-1.86,1.78,1.78,0,0,0-.54-.74,4.1,4.1,0,0,0-2.85-.67H67.7a2.46,2.46,0,0,1-2.46-2.46,2.43,2.43,0,0,1,.64-1.65,2.65,2.65,0,0,1,1.6-.81,5.69,5.69,0,0,1,2.45.23,6.27,6.27,0,0,1,2.22,1.25l0,0a5.07,5.07,0,0,0,0-2,11.46,11.46,0,0,0-.5-1.85,2,2,0,0,1,.44-2,2.36,2.36,0,0,1,.77-.53,2.41,2.41,0,0,1,.92-.16,2.06,2.06,0,0,1,1.81,1.2,6.13,6.13,0,0,1,.37,1,2,2,0,0,1,.63-.64A2.23,2.23,0,0,1,78.45,26,2,2,0,0,1,79.93,27.51Z"/><path class="cls-2" d="M32.72,68.32a1.63,1.63,0,1,0-1.62-1.63A1.63,1.63,0,0,0,32.72,68.32Z"/><path class="cls-2" d="M32.72,74.34a1.63,1.63,0,1,0-1.62-1.63A1.63,1.63,0,0,0,32.72,74.34Z"/><path class="cls-6" d="M16.32,19.83A5.87,5.87,0,1,0,22.82,25,5.88,5.88,0,0,0,16.32,19.83Z"/><path class="cls-7" d="M15.33,21.07A5.24,5.24,0,0,0,11.83,23a5.23,5.23,0,1,0,9.3,2.66h0a5.26,5.26,0,0,0-5.8-4.61Z"/><path class="cls-2" d="M16.39,20.47a5.23,5.23,0,0,0,1.19,10.4,5.24,5.24,0,0,0,4.61-5.8h0a5.24,5.24,0,0,0-2-3.5,5.18,5.18,0,0,0-3.84-1.1h0Zm-4.5,1.14a6.54,6.54,0,0,1,4.36-2.42h0a6.53,6.53,0,0,1,7.21,5.74h0a6.51,6.51,0,0,1-10.53,5.83,6.52,6.52,0,0,1-1-9.15Z"/><path class="cls-8" d="M16.64,22.62A3.06,3.06,0,1,0,20,25.32,3.07,3.07,0,0,0,16.64,22.62Z"/><path class="cls-6" d="M53,15.64a5.87,5.87,0,1,1-5.17,6.5A5.88,5.88,0,0,1,53,15.64Z"/><path class="cls-7" d="M55.89,18a5.24,5.24,0,1,0,1.94,3.5A5.22,5.22,0,0,0,55.89,18Z"/><path class="cls-2" d="M53,15a6.51,6.51,0,1,1-5.73,7.21A6.5,6.5,0,0,1,53,15Zm4,2.37a5.24,5.24,0,0,0-8.46,4.69,5.23,5.23,0,0,0,9.3,2.66A5.24,5.24,0,0,0,57,17.38Z"/><path class="cls-8" d="M53.35,18.43a3.06,3.06,0,1,1-2.7,3.4A3.07,3.07,0,0,1,53.35,18.43Z"/><path class="cls-9" d="M34.72,18.1c-14,1.47-19.27,11.21-20.78,24.53C12.5,55.41,25.68,59.41,39.25,57.83s25.52-8.38,21.23-20.51C56,24.69,48.72,16.37,34.72,18.1Z"/><path class="cls-6" d="M33.56,19.36c-6.82.72-11.5,3.43-14.64,7.57h0c-3.17,4.18-4.82,9.84-5.56,16.39a14.65,14.65,0,0,0,0,3.37,10.78,10.78,0,0,0,4.71,7.8A22,22,0,0,0,28.2,57.9,43.07,43.07,0,0,0,38,57.82a43.06,43.06,0,0,0,9.53-2.12,22,22,0,0,0,9.12-5.6,10.75,10.75,0,0,0,2.83-8.65,14.69,14.69,0,0,0-.77-3.29C56.46,32,53.58,26.8,49.54,23.44s-9.16-4.92-16-4.08Z"/><path class="cls-2" d="M34.78,18.74c-6.82.71-11.5,3.42-14.64,7.57h0C17,30.49,15.32,36.15,14.58,42.7a14.73,14.73,0,0,0,0,3.38,10.8,10.8,0,0,0,4.71,7.79,22.05,22.05,0,0,0,10.15,3.41,43.18,43.18,0,0,0,9.76-.09,43.1,43.1,0,0,0,9.52-2.11,21.93,21.93,0,0,0,9.12-5.61,10.74,10.74,0,0,0,2.83-8.65,14.61,14.61,0,0,0-.77-3.28c-2.2-6.22-5.08-11.36-9.12-14.72s-9.16-4.93-16-4.09Zm-15.66,6.8c3.36-4.43,8.32-7.32,15.52-8.08s12.68.82,17,4.37,7.22,8.86,9.5,15.28a15.86,15.86,0,0,1,.83,3.56,12,12,0,0,1-3.15,9.66,23.27,23.27,0,0,1-9.64,6,44.46,44.46,0,0,1-9.81,2.17,43.91,43.91,0,0,1-10,.09,23.17,23.17,0,0,1-10.74-3.63,12,12,0,0,1-5.25-8.7,16,16,0,0,1,0-3.66c.76-6.77,2.48-12.64,5.81-17Z"/><path class="cls-2" d="M37.51,17.89c.56,7.78-.45,10.54-1.61,10.6-1.14.21-2.74-2.26-3.95-10,.88-.18,1.8-.32,2.77-.42a27.41,27.41,0,0,1,2.79-.21ZM44,18.6a10.63,10.63,0,0,1-1.56,5.61c-.74,1.12-1.63,1.54-1.75-.41a25,25,0,0,0-.68-5.86,20.78,20.78,0,0,1,4,.66Zm-18.3,2.09a10.64,10.64,0,0,0,2.79,5.11c1,.93,1.93,1.13,1.61-.79a25.21,25.21,0,0,1-.66-5.87A21.71,21.71,0,0,0,25.74,20.69Z"/><path class="cls-10" d="M37.55,18.52c0,.21,0,.42,0,.63a28.08,28.08,0,0,0-4,.21h0c-.49.05-1,.12-1.44.19l-.07-.4c.87-.17,1.78-.31,2.73-.41h0c1-.11,1.87-.18,2.76-.21Zm6.48.75c0,.32-.05.65-.1,1a18.9,18.9,0,0,0-3.56-.86c0-.26-.1-.52-.16-.79a19.9,19.9,0,0,1,3.82.68ZM25.9,21.33v0a20.72,20.72,0,0,1,3.56-1.26v-.27A20.59,20.59,0,0,0,25.9,21.33Z"/><path class="cls-2" d="M60.42,37.16l.06.16A15.39,15.39,0,0,1,61.31,41c-4.61,1.34-13.35-1.12-.89-3.83Zm.92,5.75c-12.28-1-5.68,4.84-1.36,4.65A11,11,0,0,0,61.34,42.91Z"/><path class="cls-10" d="M60.69,41.14a10.49,10.49,0,0,1-1.27.18,14.75,14.75,0,0,0-.76-3.16c-.07-.18-.13-.36-.2-.53l1.33-.33.09.24a14.61,14.61,0,0,1,.77,3.28c0,.11,0,.22,0,.32Zm-1.44,6.39a5.69,5.69,0,0,1-.81-.13,10.55,10.55,0,0,0,1.07-4.6l1.19.06A10.37,10.37,0,0,1,59.25,47.53Z"/><path class="cls-2" d="M14,42.45a1.1,1.1,0,0,1,0,.18,15.1,15.1,0,0,0,0,3.75c4.79.3,12.85-4.1,0-3.93Zm.41,5.82c11.8-3.82,6.63,3.47,2.37,4.22A11,11,0,0,1,14.37,48.27Z"/><path class="cls-3" d="M16.15,34.74c.06.47-.15.61.5.23,3-1.75,6.41-2.17,9.89-2.63,3.23-.41,6.49-.38,9.74-.72s6.41-1.17,9.65-1.49c3.48-.34,6.89-.7,10.22.33.72.23.48.13.44-.33C54,24.62,50.89,24,47.16,24s-7.84,1.07-11.57,1.59c-3.76.34-8.05.23-11.64,1.06S17.41,28.79,16.15,34.74Z"/><path class="cls-5" d="M35.67,26.34a2.24,2.24,0,1,1-2,2.48A2.24,2.24,0,0,1,35.67,26.34Z"/><path class="cls-2" d="M54.59,33.8a10.52,10.52,0,0,1-14,2.78c-.41-.29-.61-.68-.33-1.49,2.37-5.45,7.46-7.82,15-4.07a.75.75,0,0,1,.34,1A7.61,7.61,0,0,1,54.59,33.8Z"/><path class="cls-3" d="M54.59,33.8a10.12,10.12,0,0,1-14,2.78C42.74,31.27,47.9,29.3,54.59,33.8Z"/><path class="cls-2" d="M47.76,35.46a2.18,2.18,0,1,1-1.58-2.65A2.18,2.18,0,0,1,47.76,35.46Z"/><path class="cls-3" d="M46.11,34.51a.93.93,0,0,1-1.12.68.94.94,0,0,1-.68-1.13.92.92,0,0,1,1.13-.67A.91.91,0,0,1,46.11,34.51Z"/><path class="cls-2" d="M18.89,37.88a10.54,10.54,0,0,0,14.27-.45c.33-.37.44-.8,0-1.52-3.54-4.78-9-5.95-15.51-.6a.75.75,0,0,0-.1,1.07A7.54,7.54,0,0,0,18.89,37.88Z"/><path class="cls-3" d="M18.89,37.88a10.13,10.13,0,0,0,14.27-.45C29.87,32.74,24.39,32,18.89,37.88Z"/><path class="cls-2" d="M30,37.49a2.18,2.18,0,1,1-1.58-2.65A2.19,2.19,0,0,1,30,37.49Z"/><path class="cls-3" d="M28.32,36.55a.94.94,0,0,1-1.13.67.93.93,0,1,1,.46-1.8A.94.94,0,0,1,28.32,36.55Z"/><path class="cls-5" d="M47.77,51.89c3.48,1.41,5.21-2.47,2.17-4.3a21.31,21.31,0,0,0-3.23-1.3c-.7-.27-.78-.23-.92.32a15.53,15.53,0,0,1-.61,2.23,2.14,2.14,0,0,1-.67.82A10.86,10.86,0,0,0,47.77,51.89Z"/><path class="cls-3" d="M41.86,40.53A5.5,5.5,0,1,1,37,46.62,5.51,5.51,0,0,1,41.86,40.53Z"/><path class="cls-3" d="M32.81,41.56A5.5,5.5,0,1,0,38.9,46.4,5.5,5.5,0,0,0,32.81,41.56Z"/><path class="cls-2" d="M41.63,45.12a.48.48,0,1,1-.43.53A.48.48,0,0,1,41.63,45.12Z"/><path class="cls-2" d="M44.54,45.29a.48.48,0,1,1-.42.53A.49.49,0,0,1,44.54,45.29Z"/><path class="cls-2" d="M43.08,48a.48.48,0,1,1-.43.54A.48.48,0,0,1,43.08,48Z"/><path class="cls-2" d="M34.07,46a.48.48,0,1,0,.53.43A.49.49,0,0,0,34.07,46Z"/><path class="cls-2" d="M31.26,46.8a.48.48,0,1,0,.54.43A.49.49,0,0,0,31.26,46.8Z"/><path class="cls-2" d="M33.3,49.1a.48.48,0,0,0-.42.53.48.48,0,0,0,.53.43.48.48,0,1,0-.11-1Z"/><path class="cls-11" d="M40.26,44.73a5.52,5.52,0,0,1-2.42.75,5.6,5.6,0,0,1-2.53-.18,2.05,2.05,0,0,1-1.46-1.72,2,2,0,0,1,3.62-1.36A2,2,0,0,1,39.09,41a2,2,0,0,1,2.21,1.75A2,2,0,0,1,40.26,44.73Z"/><path class="cls-2" d="M40.14,43.68a5.8,5.8,0,0,1-2.42.75,5.72,5.72,0,0,1-2.53-.19,2,2,0,0,1-1.46-1.71,2,2,0,0,1,3.62-1.37,2,2,0,0,1,3.83.52A2.06,2.06,0,0,1,40.14,43.68Z"/><path class="cls-3" d="M38.66,40.8c.14-.24.63-.21,1.09.07s.71.69.56.93-.63.2-1.08-.07S38.52,41,38.66,40.8Z"/><path class="cls-12" d="M29,62.54c-3.6,1-5.05,1.11-7.81,4.46C20,62.42,24,56.68,28.74,56.7,32.17,56.71,33.31,61.32,29,62.54Z"/><path class="cls-5" d="M27.16,62.85l1-.29a3.09,3.09,0,0,0,2.17-1.63,2.09,2.09,0,0,0,.14-1,2.23,2.23,0,0,0-.4-1,2.45,2.45,0,0,0-2-.94,5.31,5.31,0,0,0-1.37.18,7.56,7.56,0,0,0-4,2.91A8.39,8.39,0,0,0,21,65.91v.26C23.07,64,24.53,63.56,27.16,62.85Z"/><path class="cls-2" d="M29.18,63.15l-1,.29c-2.74.75-4.09,1.12-6.45,4a.64.64,0,0,1-.9.08.65.65,0,0,1-.22-.37,7.73,7.73,0,0,1-.22-1.85,9.77,9.77,0,0,1,1.93-5.6A8.82,8.82,0,0,1,27,56.27a6.88,6.88,0,0,1,1.7-.21,3.72,3.72,0,0,1,3,1.46,3.46,3.46,0,0,1,.64,1.56,3.24,3.24,0,0,1-.23,1.7h0a4.28,4.28,0,0,1-3,2.36Zm-1.38-.94,1-.29A3.08,3.08,0,0,0,31,60.29a2.09,2.09,0,0,0,.14-1,2.18,2.18,0,0,0-.4-1,2.44,2.44,0,0,0-2-.94,5.79,5.79,0,0,0-1.38.17,7.52,7.52,0,0,0-4,2.92,8.33,8.33,0,0,0-1.69,4.84v.26C23.71,63.32,25.18,62.92,27.8,62.21Z"/><path class="cls-12" d="M32.72,56.09a3.35,3.35,0,1,1-3.35,3.35A3.35,3.35,0,0,1,32.72,56.09Z"/><path class="cls-5" d="M34,58.16a2.73,2.73,0,0,0-3.84,0h0A2.72,2.72,0,0,0,34,62l0,0a2.73,2.73,0,0,0,0-3.84Z"/><path class="cls-2" d="M32.72,55.44a4,4,0,0,1,2.83,1.17h0a4,4,0,0,1,0,5.64l0,0a4,4,0,0,1-6.78-2.86,4,4,0,0,1,1.17-2.83h0a4,4,0,0,1,2.82-1.17Zm1.92,2.08a2.72,2.72,0,0,0-3.83,0h0A2.75,2.75,0,0,0,30,59.44a2.73,2.73,0,0,0,2.71,2.71,2.66,2.66,0,0,0,1.89-.77l0,0a2.72,2.72,0,0,0,0-3.83Z"/><path class="cls-12" d="M35.21,63.54c3.21,2.51,4.63,3.21,6,7.74,3.09-4.14,1.45-11.58-3.35-13.53C34.43,56.35,31.37,60.53,35.21,63.54Z"/><path class="cls-5" d="M35,63.68l.93.71,0,0c2.35,1.81,3.66,2.83,4.84,6,.06-.13.12-.26.17-.39a9.3,9.3,0,0,0,.31-5.63,8.33,8.33,0,0,0-2.9-4.65A6.23,6.23,0,0,0,37,59a2.74,2.74,0,0,0-2.47.13,2.25,2.25,0,0,0-.82.83,2.14,2.14,0,0,0-.3,1.14A3.42,3.42,0,0,0,35,63.68Z"/><path class="cls-2" d="M35.61,63l.92.71,0,0c2.35,1.81,3.66,2.83,4.84,6l.18-.39a9.37,9.37,0,0,0,.3-5.63A8.24,8.24,0,0,0,39,59.1a6,6,0,0,0-1.33-.75,2.72,2.72,0,0,0-2.46.12,2.38,2.38,0,0,0-.83.84,2.31,2.31,0,0,0-.3,1.14A3.44,3.44,0,0,0,35.61,63Zm.14,1.73L34.82,64a4.64,4.64,0,0,1-2-3.58,3.49,3.49,0,0,1,.47-1.79,3.57,3.57,0,0,1,1.27-1.29,4,4,0,0,1,3.61-.22,8,8,0,0,1,1.62.91,9.59,9.59,0,0,1,3.37,5.37,10.56,10.56,0,0,1-.36,6.42,8.12,8.12,0,0,1-1,1.8.65.65,0,0,1-1.13-.19c-1.2-3.85-2.41-4.8-4.85-6.67Z"/><path class="cls-10" d="M145.18,20.74a2.26,2.26,0,0,1,.7-.69,2.49,2.49,0,0,1,1.08-.19,1.29,1.29,0,0,1,.95.33,1.25,1.25,0,0,1,.33.94v8.15a1.36,1.36,0,1,1-2.71,0V23.89l-3.68,5.55a4.74,4.74,0,0,1-.66.78,1.41,1.41,0,0,1-.6.34,2.78,2.78,0,0,1-.76.09,1.29,1.29,0,0,1-1-.33,1.25,1.25,0,0,1-.33-.94V21.23a1.29,1.29,0,0,1,1.36-1.37,1.27,1.27,0,0,1,1.35,1.37V26.6Z"/><path class="cls-10" d="M142.28,19.19a2.59,2.59,0,0,1-1.46-1,1.27,1.27,0,0,1-.18-.37.84.84,0,0,1,.09-.66.8.8,0,0,1,.49-.37.87.87,0,0,1,.48,0,1,1,0,0,1,.42.3,1.81,1.81,0,0,0,.89.6,1.13,1.13,0,0,0,.77,0,2,2,0,0,0,.89-.6,1,1,0,0,1,.43-.29.73.73,0,0,1,.46,0,.82.82,0,0,1,.5.37.8.8,0,0,1,.09.64l0,.08a1.11,1.11,0,0,1-.16.3,2.43,2.43,0,0,1-1.45,1A5,5,0,0,1,142.28,19.19Z"/><path class="cls-10" d="M130,26.29h3l-1.51-3.36L130,26.29Zm6.87,2.57a1.28,1.28,0,0,1,.14.55,1.11,1.11,0,0,1-.4.85,1.36,1.36,0,0,1-.91.34,1.16,1.16,0,0,1-.63-.18,1.21,1.21,0,0,1-.45-.54l-.68-1.52h-4.87l-.7,1.52a1.15,1.15,0,0,1-1.09.72,1.43,1.43,0,0,1-.93-.34,1.09,1.09,0,0,1-.41-.85,1.26,1.26,0,0,1,.13-.55l4-8.15a1.42,1.42,0,0,1,.58-.63,1.73,1.73,0,0,1,1.69,0,1.34,1.34,0,0,1,.59.63Z"/><path class="cls-10" d="M112.6,30.56a1.15,1.15,0,0,1-1.28-1.28v-8a1.38,1.38,0,0,1,.37-1,1.35,1.35,0,0,1,2.34,1v7.16h2.38V21.23a1.34,1.34,0,0,1,.37-1,1.3,1.3,0,0,1,1-.38,1.36,1.36,0,0,1,1,.37,1.34,1.34,0,0,1,.37,1v7.16h2.36V21.23a1.3,1.3,0,0,1,1.37-1.37,1.27,1.27,0,0,1,1.36,1.37v8.05a1.17,1.17,0,0,1-1.28,1.28Z"/><path class="cls-10" d="M106.74,20.62a1.41,1.41,0,0,1,.5-.57,1.26,1.26,0,0,1,.65-.19,1.29,1.29,0,0,1,.9.36,1.13,1.13,0,0,1,.39.88,1.41,1.41,0,0,1-.17.66l-4.07,8.1a1.41,1.41,0,0,1-.5.59,1.15,1.15,0,0,1-.64.2,1.27,1.27,0,0,1-.91-.38,1.18,1.18,0,0,1-.4-.9,1.33,1.33,0,0,1,.15-.6l.72-1.43-3.31-5.52a1.35,1.35,0,0,1-.23-.75,1.17,1.17,0,0,1,.38-.87,1.24,1.24,0,0,1,.86-.35,1.11,1.11,0,0,1,.59.16,1.37,1.37,0,0,1,.49.52l2.51,4.24Z"/><path class="cls-10" d="M90.58,30.65a1.26,1.26,0,0,1-1.35-1.37v-8a1.37,1.37,0,0,1,.36-1,1.35,1.35,0,0,1,2.34,1v2.84h.8l3-3.68a1.25,1.25,0,0,1,1-.51,1.14,1.14,0,0,1,.82.34,1,1,0,0,1,.35.79,1.21,1.21,0,0,1-.33.82l-2.37,2.8a4.14,4.14,0,0,1,.85.5,3.12,3.12,0,0,1,.55.59q.24.36.72,1.2l.93,1.67a1.47,1.47,0,0,1,.21.75,1.23,1.23,0,0,1-.39.92,1.26,1.26,0,0,1-.9.37,1.28,1.28,0,0,1-1.15-.74l-1.38-2.52a2.35,2.35,0,0,0-.69-.86,2,2,0,0,0-1.12-.24h-.93v3a1.34,1.34,0,0,1-.37,1A1.3,1.3,0,0,1,90.58,30.65Z"/><path class="cls-10" d="M133.75,37.3a2.21,2.21,0,0,1,.7-.68,2.35,2.35,0,0,1,1.08-.19,1.33,1.33,0,0,1,.95.32,1.27,1.27,0,0,1,.33.94v8.15a1.34,1.34,0,0,1-.37,1,1.32,1.32,0,0,1-1,.37,1.3,1.3,0,0,1-1-.37,1.31,1.31,0,0,1-.37-1V40.46L130.42,46a4.23,4.23,0,0,1-.66.77,1.43,1.43,0,0,1-.6.35,2.81,2.81,0,0,1-.76.08,1.29,1.29,0,0,1-1-.32,1.27,1.27,0,0,1-.33-.94V37.8a1.34,1.34,0,0,1,.37-1,1.48,1.48,0,0,1,2,0,1.33,1.33,0,0,1,.37,1v5.37Z"/><path class="cls-10" d="M106.83,37.18a1.38,1.38,0,0,1,.5-.56,1.14,1.14,0,0,1,.64-.19,1.37,1.37,0,0,1,.91.35,1.15,1.15,0,0,1,.39.88,1.41,1.41,0,0,1-.17.66L105,46.43a1.45,1.45,0,0,1-.49.59,1.17,1.17,0,0,1-.65.19,1.29,1.29,0,0,1-.91-.37,1.22,1.22,0,0,1-.4-.91,1.33,1.33,0,0,1,.15-.6l.73-1.43-3.31-5.52a1.35,1.35,0,0,1-.23-.75,1.13,1.13,0,0,1,.38-.86,1.17,1.17,0,0,1,1.45-.19,1.5,1.5,0,0,1,.49.51l2.51,4.24Z"/><path class="cls-10" d="M94.52,47.26a5.7,5.7,0,0,1-2.79-.66,4.58,4.58,0,0,1-1.85-1.9,6.71,6.71,0,0,1,0-5.76,4.56,4.56,0,0,1,1.85-1.89,5.59,5.59,0,0,1,2.79-.67,5.72,5.72,0,0,1,3.35,1,1.13,1.13,0,0,1,.37.39,1.08,1.08,0,0,1,.11.54,1.18,1.18,0,0,1-.26.79.79.79,0,0,1-.64.33,1.24,1.24,0,0,1-.4-.07,2.89,2.89,0,0,1-.42-.22,4.51,4.51,0,0,0-1-.45,3.43,3.43,0,0,0-1-.14,2.4,2.4,0,0,0-2,.81A3.8,3.8,0,0,0,92,41.81a3.81,3.81,0,0,0,.66,2.46,2.4,2.4,0,0,0,2,.81,2.57,2.57,0,0,0,.87-.15c.28-.09.64-.24,1.09-.44l.46-.23a1,1,0,0,1,.36-.06.79.79,0,0,1,.64.33,1.18,1.18,0,0,1,.26.79,1,1,0,0,1-.48.93A5.72,5.72,0,0,1,94.52,47.26Z"/><path class="cls-10" d="M149,45.87a.79.79,0,0,1,.29.57A.74.74,0,0,1,149,47a.82.82,0,0,1-.59.24.85.85,0,0,1-.57-.23l-.83-.73a3.85,3.85,0,0,1-1.2.71,3.56,3.56,0,0,1-1.32.25,3.75,3.75,0,0,1-1.5-.29,2.45,2.45,0,0,1-1-.8,2,2,0,0,1-.37-1.19,2.27,2.27,0,0,1,.35-1.24,3.39,3.39,0,0,1,1.11-1,2.3,2.3,0,0,1-.71-1.58,1.9,1.9,0,0,1,.3-1.06,2.09,2.09,0,0,1,.86-.71,2.93,2.93,0,0,1,1.28-.26,2.37,2.37,0,0,1,1.61.51A1.71,1.71,0,0,1,147,41a2.22,2.22,0,0,1-1.31,2l1.17,1a3.64,3.64,0,0,0,.34-1.14.83.83,0,0,1,.85-.78.8.8,0,0,1,.58.23.79.79,0,0,1,.19.65,5.15,5.15,0,0,1-.75,2.13l.91.8Zm-4.15-5.46a.7.7,0,0,0-.52.2.71.71,0,0,0-.19.52.82.82,0,0,0,.11.39,2.84,2.84,0,0,0,.41.48,1.8,1.8,0,0,0,.62-.44.8.8,0,0,0,.19-.51.6.6,0,0,0-.18-.46.57.57,0,0,0-.44-.18Zm-.24,5.32a2.16,2.16,0,0,0,1.29-.47l-1.74-1.55a1.28,1.28,0,0,0-.61,1.11.82.82,0,0,0,.29.66A1.12,1.12,0,0,0,144.56,45.73Z"/><path class="cls-10" d="M90.58,63.78a1.34,1.34,0,0,1-1-.37,1.36,1.36,0,0,1-.36-1v-8a1.27,1.27,0,0,1,1.35-1.35h6.78a1.29,1.29,0,0,1,1.36,1.35v8a1.38,1.38,0,0,1-.37,1,1.48,1.48,0,0,1-2,0,1.33,1.33,0,0,1-.37-1V55.25H91.93v7.16a1.34,1.34,0,0,1-.37,1A1.27,1.27,0,0,1,90.58,63.78Z"/><path class="cls-10" d="M108.34,53.87a2.11,2.11,0,0,1,.7-.68,2.35,2.35,0,0,1,1.08-.19,1.26,1.26,0,0,1,.94.32,1.23,1.23,0,0,1,.34.94v8.15a1.38,1.38,0,0,1-.37,1,1.48,1.48,0,0,1-2,0,1.33,1.33,0,0,1-.37-1V57L105,62.58a4.68,4.68,0,0,1-.65.77,1.56,1.56,0,0,1-.6.35,3.28,3.28,0,0,1-.76.08,1.33,1.33,0,0,1-.95-.32,1.27,1.27,0,0,1-.33-.94V54.37a1.34,1.34,0,0,1,.37-1,1.3,1.3,0,0,1,1-.37,1.34,1.34,0,0,1,1,.37,1.35,1.35,0,0,1,.37,1v5.37Z"/><path class="cls-10" d="M123.76,66.4a1.23,1.23,0,0,1-.92-.37,1.41,1.41,0,0,1-.34-1V63.69h-6.83a1.15,1.15,0,0,1-1.28-1.28v-8a1.34,1.34,0,0,1,.37-1,1.3,1.3,0,0,1,1-.37,1.34,1.34,0,0,1,1,.37,1.35,1.35,0,0,1,.37,1v7.15h3.71V54.37a1.34,1.34,0,0,1,.37-1,1.36,1.36,0,0,1,2.34,1v7.15h.22a1.32,1.32,0,0,1,1,.34,1.27,1.27,0,0,1,.34.94V65a1.41,1.41,0,0,1-.35,1A1.21,1.21,0,0,1,123.76,66.4Z"/><path class="cls-10" d="M136.47,66.4a1.2,1.2,0,0,1-.91-.37,1.42,1.42,0,0,1-.35-1V63.69h-6.83a1.15,1.15,0,0,1-1.28-1.28v-8a1.38,1.38,0,0,1,.37-1,1.34,1.34,0,0,1,1-.37,1.3,1.3,0,0,1,1,.37,1.31,1.31,0,0,1,.37,1v7.15h3.72V54.37a1.38,1.38,0,0,1,.36-1,1.34,1.34,0,0,1,1-.37,1.3,1.3,0,0,1,1,.37,1.31,1.31,0,0,1,.37,1v7.15h.23a1.3,1.3,0,0,1,.95.34,1.23,1.23,0,0,1,.34.94V65a1.4,1.4,0,0,1-.34,1A1.23,1.23,0,0,1,136.47,66.4Z"/><path class="cls-10" d="M145.8,53.75a1.38,1.38,0,0,1,.5-.56,1.14,1.14,0,0,1,.64-.19,1.28,1.28,0,0,1,.91.35,1.15,1.15,0,0,1,.39.88,1.41,1.41,0,0,1-.17.66L144,63a1.54,1.54,0,0,1-.5.59,1.17,1.17,0,0,1-.65.19,1.26,1.26,0,0,1-.91-.38,1.21,1.21,0,0,1-.4-.9,1.35,1.35,0,0,1,.16-.6l.72-1.43L139.11,55a1.35,1.35,0,0,1-.23-.75,1.13,1.13,0,0,1,.38-.86,1.21,1.21,0,0,1,.86-.36,1.15,1.15,0,0,1,.59.17,1.42,1.42,0,0,1,.49.51l2.51,4.24Z"/><path class="cls-10" d="M112.76,47.12a1.15,1.15,0,0,1-1.27-1.28v-8a1.37,1.37,0,0,1,.36-1,1.48,1.48,0,0,1,2,0,1.33,1.33,0,0,1,.37,1V45h2.38V37.8a1.38,1.38,0,0,1,.37-1,1.48,1.48,0,0,1,2,0,1.33,1.33,0,0,1,.37,1V45h2.37V37.8a1.34,1.34,0,0,1,.37-1,1.49,1.49,0,0,1,2,0,1.33,1.33,0,0,1,.37,1v8a1.15,1.15,0,0,1-1.28,1.28Z"/></g></g></svg>
