<svg width="30" height="28" viewBox="0 0 30 28" fill="none" xmlns="http://www.w3.org/2000/svg">
    <path d="M21.1625 20.5756C19.3688 20.5756 17.9062 22.0381 17.9062 23.8318C17.9062 25.6256 19.3688 27.0881 21.1625 27.0881C22.9563 27.0881 24.4188 25.6256 24.4188 23.8318C24.4188 22.0381 22.9563 20.5756 21.1625 20.5756ZM21.1625 24.9693C20.5375 24.9693 20.0312 24.4631 20.0312 23.8381C20.0312 23.2131 20.5375 22.7068 21.1625 22.7068C21.7875 22.7068 22.2938 23.2131 22.2938 23.8381C22.2938 24.4568 21.7875 24.9693 21.1625 24.9693Z" fill="#333333"/>
    <path d="M28.7188 4.93738H6.59375L6.28125 3.64988C5.8875 2.04988 4.4625 0.937378 2.81875 0.937378H1.28125C0.69375 0.937378 0.21875 1.41238 0.21875 1.99988C0.21875 2.58738 0.69375 3.06238 1.28125 3.06238H2.825C3.4875 3.06238 4.0625 3.49988 4.21875 4.14363L7.29375 16.7186C7.6875 18.3186 9.10625 19.4374 10.7563 19.4374H23.9062C25.5812 19.4374 27.0063 18.2874 27.3813 16.6624L29.7687 6.21863C29.8438 5.90613 29.7625 5.58113 29.5625 5.33113C29.35 5.07488 29.0438 4.93738 28.7188 4.93738ZM25.3 16.1999C25.15 16.8561 24.575 17.3124 23.9 17.3124H10.75C10.0875 17.3124 9.5125 16.8624 9.35625 16.2186L7.1125 7.06238H27.3875L25.3 16.1999Z" fill="#333333"/>
    <path d="M12.6 20.5756C10.8063 20.5756 9.34375 22.0381 9.34375 23.8318C9.34375 25.6256 10.8063 27.0881 12.6 27.0881C14.3938 27.0881 15.8563 25.6256 15.8563 23.8318C15.8563 22.0381 14.3938 20.5756 12.6 20.5756ZM12.6 24.9693C11.975 24.9693 11.4688 24.4631 11.4688 23.8381C11.4688 23.2131 11.975 22.7068 12.6 22.7068C13.225 22.7068 13.7312 23.2131 13.7312 23.8381C13.7312 24.4568 13.225 24.9693 12.6 24.9693Z" fill="#333333"/>
</svg>
