<svg width="16" height="20" viewBox="0 0 16 20" fill="none" xmlns="http://www.w3.org/2000/svg">
    <path d="M8 11C6.34315 11 5 9.65685 5 8C5 6.34315 6.34315 5 8 5C9.65685 5 11 6.34315 11 8C11 9.65685 9.65685 11 8 11Z" fill="#4F4F4F"/>
    <path d="M8 0C12.4222 0 16 3.65909 16 8.18182C16 13.5909 9.66667 20 8 20C6.17778 20 0 13.6818 0 8.18182C0 3.65909 3.57778 0 8 0ZM7.97778 18.1364C9.48889 17.3409 14.2222 12.3409 14.2222 8.18182C14.2222 4.68182 11.4222 1.81818 8 1.81818C4.57778 1.81818 1.77778 4.68182 1.77778 8.18182C1.77778 12.5 6.46667 17.3864 7.97778 18.1364Z" fill="#4F4F4F"/>
</svg>
