<svg width="192" height="71" viewBox="0 0 192 71" fill="none" xmlns="http://www.w3.org/2000/svg">
    <path fill-rule="evenodd" clip-rule="evenodd" d="M5.39291 57.7112C5.64582 57.7112 5.89873 57.7112 6.06734 57.7112C6.40455 57.7112 6.74177 57.8713 6.91037 58.1115C9.77669 62.9147 13.8232 67.0775 18.6285 70.1995C19.2187 70.5998 19.8931 70.84 20.5675 70.84C21.3262 70.84 21.9164 70.5998 22.5065 70.1995C27.3118 67.0775 31.3583 62.9147 34.2247 58.1115C34.3933 57.7913 34.7305 57.6311 35.0677 57.7112C35.3206 57.7112 35.5735 57.7112 35.7421 57.7112C34.7305 57.471 33.8031 57.1508 32.8758 56.8306C31.7799 56.1902 30.7682 55.5498 29.7566 54.8293C29.4194 54.5891 29.4194 54.2689 29.6723 53.9487C30.431 52.8279 31.1897 51.6271 31.7799 50.4263C32.0328 49.866 32.7915 50.0261 32.8758 50.5864C32.9601 51.2269 33.1287 52.2676 33.4659 52.8279C33.6345 53.0681 33.8031 53.0681 34.1404 52.988C34.4776 52.988 34.6462 52.988 34.7305 52.7479C35.152 52.1074 35.2363 50.8266 35.2363 50.0261C35.2363 49.2255 35.0677 48.0247 34.5619 47.3843C34.3933 47.1441 34.1404 47.1441 33.8031 47.2242C33.3816 47.2242 33.1287 46.904 33.213 46.5037C33.9717 44.1021 34.309 41.6204 34.309 39.0587C34.309 35.9366 33.8031 32.014 32.2014 29.2121C31.6956 28.3315 31.1054 27.6911 30.2624 27.1307C27.649 25.3696 23.771 24.569 20.5675 24.569C17.364 24.569 13.5703 25.3696 10.8726 27.1307C10.0296 27.6911 9.43948 28.4116 8.93366 29.2121C7.33189 31.934 6.82607 35.9366 6.82607 39.0587C6.82607 41.4603 7.16329 43.8619 7.83771 46.1835C7.92202 46.5838 7.6691 46.984 7.24759 46.984C7.16328 46.984 7.07898 47.0641 7.07898 47.0641C6.40455 47.4643 5.73013 48.5851 5.39291 49.3056C5.0557 50.0261 4.63418 51.2269 4.80279 51.9473C4.88709 52.2676 5.0557 52.2676 5.30861 52.3476C5.56152 52.4277 5.73013 52.5878 5.98304 52.4277C6.65746 52.0274 7.33189 50.9066 7.6691 50.1862C7.75341 49.946 7.92202 49.7058 8.00632 49.4657C8.17493 48.9053 8.93366 48.8253 9.10226 49.3856C9.77669 50.9066 10.5354 52.3476 11.5471 53.6285C11.8 54.0287 11.8 54.429 11.3785 54.7492C10.4511 55.4697 9.43947 56.1101 8.34353 56.6705C7.33189 57.1508 6.32025 57.471 5.39291 57.7112Z" fill="#FEFEFE"/>
    <path fill-rule="evenodd" clip-rule="evenodd" d="M6.06726 47.3841H6.23587C6.40447 47.144 6.65738 46.9839 6.91029 46.8238C6.9946 46.7437 7.1632 46.6637 7.24751 46.6637C7.50042 46.6637 7.58472 46.5036 7.50042 46.3434C6.82599 43.9418 6.48878 41.5402 6.48878 39.1386C6.48878 35.9365 6.9946 31.9338 8.68067 29.1319C9.18649 28.2514 9.86091 27.5309 10.7039 26.8904C13.4017 25.0492 17.2796 24.2487 20.5674 24.2487C23.8553 24.2487 27.7332 25.0492 30.4309 26.8904C31.274 27.4508 31.9484 28.2514 32.4542 29.1319C34.1403 31.9338 34.6461 35.9365 34.6461 39.1386C34.6461 41.7003 34.3089 44.182 33.5502 46.6637C33.4658 46.8238 33.5502 46.9038 33.7188 46.9038C34.1403 46.9038 34.4775 46.8238 34.8147 47.224C34.8147 47.3041 34.899 47.3041 34.899 47.3841H35.0676C35.9949 46.8238 36.5851 46.0232 37.0066 45.0626C38.1025 42.5009 39.1142 39.8591 40.0415 37.2173C40.5473 35.7764 40.5473 34.3354 40.2101 32.8945C39.9572 31.6937 39.62 30.5729 39.1985 29.4522C39.1142 29.212 39.1142 28.9718 39.1985 28.7317C40.2944 25.2894 41.3904 21.1266 40.5473 17.6042C40.2944 16.6436 39.8729 16.0832 38.8613 15.8431C37.3438 15.4428 35.742 15.3627 34.1403 15.6029C33.8031 15.683 33.5502 15.4428 33.4658 15.2026C33.3815 14.5622 33.2129 14.0018 33.0443 13.3614C32.96 12.9611 32.7914 12.6409 32.5385 12.3207C32.0327 11.6002 31.1054 11.5202 30.3466 11.9204L22.0849 15.4428C21.1576 15.8431 20.5674 14.6423 21.4105 14.1619C21.9163 13.8417 22.3378 13.4415 22.8436 13.0412L22.9279 12.9611C22.0849 13.0412 21.2419 13.1212 20.3988 13.1212C17.5325 13.1212 14.7505 12.5609 12.1371 11.5202C10.1981 10.7196 8.34345 11.3601 7.83763 13.3614C7.66902 13.9218 7.50042 14.5622 7.41611 15.1226C7.33181 15.5228 7.0789 15.683 6.65738 15.6029C5.13992 15.3627 3.53816 15.4428 2.0207 15.8431C1.00906 16.0832 0.587542 16.7236 0.334632 17.6042C-0.592705 21.2066 0.587544 25.3694 1.68349 28.8117C1.76779 29.0519 1.76779 29.212 1.68349 29.4522C1.26197 30.653 0.924757 31.7737 0.671847 32.9745C0.334633 34.4155 0.334634 35.8564 0.840454 37.2974C1.68349 39.9392 2.69513 42.5809 3.87537 45.1426C4.5498 46.0232 5.13992 46.8238 6.06726 47.3841Z" fill="#FF70E6"/>
    <path fill-rule="evenodd" clip-rule="evenodd" d="M35.1519 19.0452C35.2362 18.6449 35.3205 18.3247 35.4048 17.9244C35.4891 17.5241 35.9107 17.5241 35.995 17.8444C36.2479 18.805 36.4165 19.6856 36.6694 20.7263C36.7537 20.9664 37.0909 21.0465 37.1752 20.7263C37.3438 19.7656 37.4281 18.805 37.4281 17.8444C37.4281 17.4441 37.9339 17.364 38.0182 17.7643C38.6084 19.6055 38.9456 21.6069 38.8613 23.5282C38.8613 23.9284 39.3671 23.9284 39.4514 23.6082C39.9572 21.6069 39.9572 19.5255 39.5357 17.7643C39.3671 17.2039 39.1985 16.9638 38.6927 16.8037C37.2595 16.4034 35.8264 16.3233 34.3932 16.5635C34.3089 16.5635 34.2246 16.6436 34.2246 16.8037C34.2246 17.0438 34.2246 17.284 34.2246 17.5241C34.2246 17.6843 34.3089 18.0045 34.3932 18.1646C34.5618 18.4047 34.7304 18.7249 34.899 18.9651C34.9833 19.1252 35.1519 19.2053 35.1519 19.0452ZM33.0443 24.3287C32.96 24.3287 32.96 24.1686 32.96 24.0885C33.3816 23.0478 33.7188 21.847 33.9717 20.7263C33.9717 20.6462 34.1403 20.6462 34.1403 20.7263C36.4165 24.6489 38.1869 28.9718 39.1985 33.2146C39.4514 34.4955 39.4514 35.6963 39.0299 36.9771C38.5241 38.5782 37.9339 40.1793 37.2595 41.7803C37.0909 42.1005 36.6694 42.0205 36.6694 41.6202C36.6694 39.4588 36.1636 37.7777 35.2362 36.2567C35.0676 36.0165 35.4048 35.7763 35.5734 36.0165C36.2479 36.5769 36.7537 37.3774 37.2595 38.1779C37.4281 38.4981 37.8496 38.258 37.7653 37.9378C37.3438 36.4167 36.2479 34.5755 34.9833 33.3747C34.7304 33.2146 34.9833 32.8944 35.2362 33.0545C36.4165 33.6149 37.1752 34.2553 38.0182 35.216C38.2712 35.4561 38.6927 35.216 38.5241 34.8957C37.5967 33.3747 36.0793 32.0138 34.5618 31.1332C34.3089 30.9731 34.4775 30.733 34.7304 30.813C35.7421 31.0532 36.6694 31.3734 37.681 31.9338C38.0182 32.1739 38.2712 31.6136 38.0182 31.4534C36.4165 30.2526 34.899 29.3721 33.1287 28.6516C32.7914 28.4915 32.8757 28.0111 33.3816 28.0912C34.4775 28.3314 35.4891 28.6516 36.7537 29.2119C37.0909 29.3721 37.3438 28.8917 37.0066 28.6516C35.4892 27.6109 33.8874 26.8103 32.2013 26.1699C31.8641 26.0098 32.0327 25.6095 32.3699 25.6896C33.4659 25.8497 34.4775 26.25 35.4891 26.6502C35.8264 26.8103 35.995 26.33 35.7421 26.1699C34.899 25.2893 33.9717 24.729 33.0443 24.3287ZM23.0966 15.6029C23.2652 17.4441 23.2652 18.8851 23.0966 20.8063C23.0966 21.1265 23.4338 21.2867 23.6024 20.8864C24.5297 18.6449 24.3611 17.364 23.6024 15.5228C23.4338 15.2826 23.0966 15.3627 23.0966 15.6029ZM25.3728 14.9624C25.8786 17.284 25.8786 19.3654 25.5414 21.6869C25.5414 21.9271 25.8786 22.0071 25.9629 21.767C27.1431 19.2853 27.0588 17.2039 25.7943 14.8023C25.6257 14.5622 25.2884 14.7223 25.3728 14.9624ZM28.0705 14.0018C29.0821 17.1239 29.2507 19.0452 28.5763 22.7276C28.492 23.0478 28.9135 23.2079 29.0821 22.8877C30.6839 19.4454 30.4309 16.9638 28.492 13.8417C28.3234 13.5215 27.9862 13.6816 28.0705 14.0018ZM20.8204 15.9231C20.3989 17.6843 20.3146 18.6449 20.6518 20.4861C20.6518 20.7263 20.989 20.8063 21.0733 20.4861C21.4948 18.7249 21.5791 17.6843 21.3262 15.9231C21.2419 15.6029 20.9047 15.6029 20.8204 15.9231ZM8.93361 20.9664C8.42779 18.5648 8.51209 16.0832 9.18652 13.6015C9.43943 12.7209 10.0296 12.2406 10.7883 12.2406C11.0412 12.2406 11.1255 12.3207 11.1255 12.4808C11.2098 13.4414 11.2098 14.1619 11.4627 15.0425C11.547 15.4428 11.8842 15.4428 12.0528 15.1225C12.4743 14.4021 12.8116 13.8417 13.3174 13.1212C13.486 12.881 13.8232 12.881 13.8232 13.2813C13.8232 14.0818 13.9075 15.1225 14.1604 16.0031C14.2447 16.4034 14.7505 16.4834 14.9191 16.0832C15.172 15.4428 15.425 14.8824 15.8465 14.1619C16.0151 13.9217 16.3523 14.0018 16.3523 14.322C16.4366 15.2026 16.5209 15.843 16.6895 16.7236C16.7738 17.0438 17.2796 17.1239 17.3639 16.7236C17.5325 16.1632 17.7855 15.5228 18.1227 14.8023C18.207 14.5622 18.5442 14.5622 18.5442 14.8824C18.5442 15.2826 18.5442 15.843 18.5442 16.2433C18.5442 16.4834 18.7128 16.6436 18.7971 16.7236C19.05 16.8837 19.3029 16.9638 19.3029 17.2039C19.3029 17.4441 19.1343 17.6042 19.05 17.8444C18.8814 18.3247 18.7971 18.7249 18.7128 19.2053C18.6285 20.0058 18.6285 20.6462 18.5442 21.4468C18.5442 21.847 18.0384 21.847 17.9541 21.4468C17.7012 20.326 17.5325 19.2853 17.3639 18.2446C17.2796 17.9244 16.8581 17.9244 16.7738 18.2446C16.3523 19.8457 16.1837 21.1265 16.0151 22.7276C15.9308 23.0478 15.5936 23.1279 15.425 22.8077C15.0034 21.5268 14.8348 20.326 14.6662 19.1252C14.6662 18.805 14.0761 18.7249 13.9918 19.1252C13.6546 20.8864 13.5703 22.2473 13.486 24.0885C13.486 24.4087 13.0645 24.4888 12.9802 24.2486C12.39 22.9678 11.9685 21.6869 11.7156 20.0859C11.6313 19.6856 11.0412 19.7656 11.0412 20.1659C10.9569 21.847 11.0412 23.4481 11.2941 24.9691C11.2941 25.2093 11.0412 25.2893 10.8726 25.1292C9.94525 24.1686 9.18652 22.2473 8.93361 20.9664ZM3.6225 22.8877C2.86377 21.4468 2.52656 19.6856 2.61086 17.6042C2.61086 17.1239 2.10504 17.0438 1.93643 17.4441C1.85213 17.6042 1.85213 17.6843 1.76783 17.8444C1.1777 20.4061 1.59922 23.368 2.35795 26.1699C2.44225 26.4101 2.61086 26.4101 2.77947 26.1699C3.03238 25.6095 3.28528 25.0492 3.53819 24.4888C3.7068 23.9284 3.87541 23.4481 3.6225 22.8877ZM9.18652 26.25C7.66906 26.4901 5.98299 27.0505 4.71844 27.771C4.38123 27.9311 4.54983 28.4114 4.97135 28.2513C6.06729 27.851 7.16324 27.6909 8.34348 27.6109C8.765 27.6109 8.765 28.0912 8.42779 28.1712C6.65742 28.6516 4.97135 29.5322 3.7068 30.6529C3.45389 30.8931 3.7068 31.2933 4.04402 31.1332C4.97135 30.5729 5.98299 30.1726 7.07893 29.8524C7.50045 29.6923 7.66906 30.2526 7.33184 30.4127C5.81438 31.2133 4.29693 32.4941 3.20098 33.775C2.94807 34.0151 3.28529 34.4154 3.6225 34.1753C4.46553 33.5348 5.30857 32.9745 6.1516 32.4941C6.48881 32.334 6.82602 32.7343 6.48881 32.9745C5.13996 34.1753 4.12832 35.5362 3.28528 37.3774C3.11668 37.8577 3.5382 38.0979 3.79111 37.6976C4.29693 36.9771 4.97135 36.1766 5.64578 35.6963C5.98299 35.4561 6.2359 35.7763 6.06729 36.0965C4.97135 37.8577 4.54984 39.6189 4.63414 41.9404C4.63414 42.2607 5.13996 42.3407 5.22426 41.9404C5.39287 40.4995 5.81438 39.2186 6.48881 37.8577C6.57311 37.6976 6.82602 37.6976 6.82602 38.0178C6.74172 40.7396 7.07893 43.4615 7.83766 46.1032C7.92197 46.5035 7.66906 46.9038 7.24754 46.9038C7.16324 46.9038 7.07893 46.9838 7.07893 46.9838C6.91033 47.0639 6.82603 47.1439 6.74172 47.304C6.57312 47.304 6.48881 47.304 6.32021 47.304C5.39287 46.7437 4.63414 45.9431 4.12832 44.7423C3.03238 42.1806 2.02074 39.6189 1.0934 36.8971C0.58758 35.3761 0.58758 33.775 0.924793 32.4141C1.1777 31.2133 1.51492 30.0125 1.93643 28.8917C2.02074 28.7316 1.93643 28.6516 1.93643 28.4915C0.756187 24.809 -0.339758 20.6462 0.587579 17.1239C0.840488 16.0832 1.43061 15.3627 2.52656 15.0425C4.04402 14.6422 5.64578 14.4821 7.33184 14.8023C7.50045 14.8023 7.58476 14.8023 7.58476 14.6422C7.66906 14.0018 7.83767 13.4414 8.00627 12.801C8.59639 10.6395 10.6197 9.83901 12.8116 10.7196C15.3407 11.6802 18.0384 12.2406 20.9047 12.2406C22.3378 12.2406 23.6867 12.0805 25.0355 11.8403C24.2768 12.3207 23.6024 12.801 23.6024 12.801C23.0123 13.2013 22.7593 13.4414 22.1692 13.9217C21.7477 14.1619 22.0006 14.8023 22.5064 14.5622L30.7682 11.0398C31.6955 10.6395 32.7914 10.7196 33.4659 11.6002C33.7188 11.9204 33.8874 12.3207 33.9717 12.7209C34.1403 13.3614 34.3089 14.0018 34.3932 14.6422C34.3932 14.7223 34.4775 14.8023 34.6461 14.8023C36.2479 14.5622 37.9339 14.6422 39.5357 15.0425C40.6316 15.3627 41.2218 16.0031 41.4747 17.1239C42.3177 20.6462 41.3061 24.809 40.1258 28.4915C40.0415 28.6516 40.0415 28.8117 40.1258 28.9718C40.5473 30.1726 40.8003 31.2933 41.1375 32.4941C41.4747 33.855 41.4747 35.4561 40.9689 36.9771C40.0415 39.6989 39.0299 42.2607 37.9339 44.8224C37.4281 46.0232 36.6694 46.8237 35.7421 47.3841C35.5735 47.3841 35.4048 47.3841 35.2362 47.3841C35.0676 47.1439 34.8147 47.1439 34.4775 47.224C34.056 47.224 33.8031 46.9038 33.8874 46.5035C34.6461 44.1019 34.9833 41.6202 34.9833 39.0585C34.9833 35.9364 34.4775 32.0138 32.8757 29.2119C32.3699 28.3314 31.7798 27.6909 30.9368 27.1306C28.3234 25.3694 24.4454 24.5688 21.2419 24.5688C17.9541 24.5688 13.4017 25.4494 10.9569 27.6909C10.6197 27.2907 10.3668 26.8103 10.1139 26.33C9.35512 26.25 9.27082 26.25 9.18652 26.25ZM8.09057 24.1686C7.50045 24.4087 6.82602 24.809 6.2359 25.2093C5.89869 25.4494 6.1516 25.9298 6.48881 25.7696C7.16324 25.5295 7.75336 25.2893 8.51209 25.1292C8.6807 25.1292 8.6807 24.9691 8.6807 24.8891C8.59639 24.7289 8.51209 24.4888 8.42779 24.3287C8.34348 24.1686 8.17488 24.0885 8.09057 24.1686ZM31.274 12.4007C31.6112 12.6409 31.9484 12.9611 32.117 13.5215C33.2973 17.6042 32.7071 21.767 30.6839 25.2093C30.5153 25.4494 30.178 25.2893 30.2623 24.9691C31.6955 20.1659 32.0327 17.6042 30.8525 12.6409C30.8525 12.4007 30.9368 12.2406 31.274 12.4007Z" fill="#CA17A8"/>
    <path fill-rule="evenodd" clip-rule="evenodd" d="M8.09054 36.3368C8.42775 36.7371 8.76497 37.0573 9.10218 37.2975C9.27078 37.4576 9.52369 37.4576 9.7766 37.2975C10.8725 36.657 11.7999 36.2568 13.0644 35.7764C13.7389 35.5363 14.6662 35.5363 15.4249 35.7764C15.9307 35.8565 16.268 36.0166 16.7738 36.2568C17.0267 36.3368 17.111 36.1767 17.0267 36.0166C16.4366 35.2161 15.4249 34.6557 14.4133 34.5756C13.4016 34.5756 12.1371 34.8959 10.8725 35.3762C10.5353 35.5363 10.3667 35.2161 10.6196 34.9759C11.2098 34.0953 12.1371 33.2948 13.0644 32.5743C13.3173 32.4142 13.1487 32.174 12.8958 32.2541C11.7156 32.5743 10.7039 33.0546 9.94521 33.535C9.608 33.7751 9.43939 34.0953 9.43939 34.4956C9.43939 35.136 9.608 35.8565 9.7766 36.7371C9.7766 36.9772 9.52369 37.0573 9.35509 36.8972C9.01787 36.4169 8.76496 35.9366 8.51205 35.3762C8.42775 35.2161 8.17484 35.2161 8.09054 35.3762C7.92193 35.6163 7.83763 35.9366 8.09054 36.3368ZM8.68066 44.9826C8.17484 42.1007 10.7882 39.3789 13.6546 38.9786C13.9918 38.8985 14.0761 38.4983 13.6546 38.4983C13.1487 38.4182 12.6429 38.4182 12.1371 38.4182C11.4627 38.4182 10.8725 38.5783 10.1981 38.8985C9.52369 39.2988 8.93357 39.6991 8.25915 40.1794C7.92193 40.4195 7.50041 39.9392 7.92193 39.619C8.34345 39.3789 8.93357 39.0586 9.52369 38.8185C9.6923 38.7384 9.6923 38.4983 9.43939 38.4983C8.93357 38.4983 8.42775 38.4983 8.00624 38.4983C7.50042 38.4983 7.58472 37.8578 8.00624 37.9379C8.42775 38.0179 8.84927 38.098 9.18648 38.1781C9.608 38.2581 9.86091 38.2581 10.2824 38.098C10.9568 37.7778 11.7156 37.5376 12.3057 37.3775C12.4743 37.2975 12.6429 37.2975 12.7272 37.4576C12.9801 37.6977 13.1487 37.8578 13.5703 37.8578H14.0761C14.5819 37.8578 14.9191 37.6177 15.0877 37.2174C15.172 37.0573 15.3406 37.0573 15.3406 37.2174C15.3406 38.3382 15.0034 39.4589 14.329 40.4996C14.0761 40.8999 14.4133 41.14 14.7505 40.8999C15.4249 40.2594 15.9307 39.539 16.1837 38.5783C16.268 38.3382 16.5209 38.3382 16.6052 38.5783C16.6895 39.4589 16.7738 40.2594 16.7738 41.2201C16.7738 41.5403 16.6895 41.7004 16.5209 41.8605C15.9307 42.3408 15.5092 42.9813 15.4249 43.8619C15.0877 46.0233 14.0761 47.7845 12.1371 47.7845C9.94521 47.7044 8.93357 46.5837 8.68066 44.9826ZM17.3639 44.1821H17.954C18.2069 44.1821 18.2912 44.022 18.3755 43.8619C18.4598 43.3015 18.3755 42.4209 18.0383 42.4209C17.4482 42.4209 16.9424 43.3815 16.9424 43.8619C16.9424 44.102 17.111 44.1821 17.3639 44.1821ZM20.6517 51.3869C21.2419 51.3869 21.7477 51.3869 22.2535 51.3068C22.7593 51.2268 23.0122 51.3068 23.2651 51.7071C23.3494 51.8672 23.4337 52.0273 23.518 52.1074C23.6023 52.2675 23.6867 52.2675 23.8553 52.1874C24.614 51.7071 25.2041 51.0667 25.8785 50.4262C26.1314 50.1861 26.4687 50.4262 26.2158 50.7465C25.5413 51.627 24.8669 52.3475 24.0239 53.1481C23.518 53.6284 22.9279 53.8685 22.3378 53.9486C21.832 53.9486 21.3262 54.0287 20.6517 54.0287C20.0616 54.0287 19.4715 54.0286 18.9657 53.9486C18.3755 53.9486 17.7854 53.6284 17.2796 53.1481C16.5209 52.3475 15.8464 51.627 15.0877 50.7465C14.8348 50.4262 15.172 50.1861 15.4249 50.4262C16.0151 51.0667 16.6895 51.7071 17.4482 52.1874C17.5325 52.2675 17.7011 52.2675 17.7854 52.1074C17.8697 51.9473 17.954 51.7872 18.0383 51.7071C18.2912 51.3068 18.5442 51.2268 19.05 51.3068C19.5558 51.3869 20.0616 51.3869 20.6517 51.3869ZM20.6517 47.6244C18.5442 47.6244 17.3639 48.1847 15.5092 48.6651C15.8464 49.0653 16.5209 49.3855 17.2796 49.3855C18.7971 49.3855 19.3029 49.0653 20.736 49.0653C22.1692 49.0653 22.675 49.3855 24.1925 49.3855C24.9512 49.3855 25.6256 49.0653 25.9628 48.6651C23.9396 48.1847 22.7593 47.6244 20.6517 47.6244ZM12.0528 49.7858C12.6429 49.6257 13.0644 50.2661 13.1487 50.9866C13.5703 52.8278 14.2447 54.2688 15.5092 55.7898C15.8464 56.1901 15.3406 56.5904 15.0034 56.1901C13.9075 55.0693 12.8958 53.8685 12.1371 52.6677C11.7156 52.1074 10.9569 50.1861 12.0528 49.7858ZM22.4221 46.3435C22.1692 46.3435 22.2535 45.9432 22.5064 45.9432H23.4337C24.614 45.9432 25.0355 45.3829 25.6256 45.623C26.0471 45.7831 25.9628 46.2635 26.3844 46.5837L26.9745 46.9839C27.2274 47.144 27.0588 47.4643 26.8059 47.3842C26.1314 47.2241 25.457 46.9839 24.8669 46.8238C24.1082 46.7438 23.2651 46.5036 22.4221 46.3435ZM16.6052 46.9039C17.111 46.7438 17.6168 46.6637 18.0383 46.5036C18.5441 46.4236 19.05 46.3435 19.5558 46.2635C19.893 46.2635 19.9773 45.7831 19.5558 45.7031L19.05 45.543C18.2912 45.3028 17.7011 45.4629 17.1953 45.8632L16.3523 46.5036C16.0994 46.6637 16.268 46.9839 16.6052 46.9039ZM23.9396 38.3382C23.518 39.1387 23.0122 39.8592 22.3378 40.7398C22.0849 41.06 22.3378 41.4602 22.7593 41.2201C23.6024 40.7398 24.7826 39.8592 24.7826 39.1387C24.7826 38.8185 24.6983 38.5783 24.5297 38.3382C24.4454 38.098 24.1082 38.098 23.9396 38.3382ZM30.0937 35.2161C30.5995 35.3762 30.8524 35.7765 30.9367 36.0967C30.9367 36.1767 30.9367 36.3368 30.7681 36.2568L28.4076 35.7764C27.4803 35.6163 26.553 35.5363 25.7942 35.7764C25.2884 35.8565 24.9512 36.0166 24.4454 36.2568C24.1925 36.3368 24.1082 36.1767 24.1925 36.0166C24.7826 35.2161 25.7942 34.6557 26.8059 34.5756C27.9018 34.5756 28.9978 34.8158 30.0937 35.2161ZM19.7244 42.1007C19.7244 42.2608 19.7244 42.4209 19.5558 42.581C19.3872 42.7411 19.3029 42.9813 19.3029 43.3015V43.5416C19.3029 43.8619 19.3872 44.102 19.5558 44.2621C19.6401 44.3422 19.7244 44.4222 19.9773 44.4222H20.9046C21.2419 44.4222 21.4948 44.3422 21.7477 44.102C22.0006 43.8619 22.1692 43.7818 22.5064 43.7818H22.675C23.2651 43.7818 23.3494 44.102 23.9396 44.102H24.1082C24.3611 44.102 24.4454 43.9419 24.4454 43.7818C24.4454 43.3815 24.0239 42.6611 23.518 42.2608C23.2651 42.0206 23.518 41.5403 23.9396 41.6204C24.8669 41.9406 25.7099 42.661 26.2158 43.5416C27.1431 45.2228 28.239 46.0233 29.5879 46.5036C30.0937 46.6637 30.3466 47.144 30.178 47.6244C29.4193 50.026 28.3233 52.4276 26.7216 54.589C26.4687 54.9092 26.0471 54.589 26.2158 54.3489C26.8902 53.1481 27.3117 52.1074 27.6489 50.8265C27.7332 50.5863 27.396 50.4262 27.2274 50.6664C25.8785 54.0287 23.9396 56.1901 21.3262 56.1901C20.6517 56.1901 20.2302 56.03 19.3029 56.03C18.4598 56.03 17.7854 56.5103 17.7854 57.3109C17.7854 58.1914 18.4598 58.7518 19.893 58.9119C20.1459 58.9119 20.3988 58.9119 20.6517 58.9119C21.832 58.9119 22.7593 58.8319 23.771 58.1914C26.3844 56.5904 28.5762 53.7885 30.0937 51.2268C32.2856 47.4643 33.3815 43.2214 33.3815 38.8985C33.3815 38.1781 33.3815 37.2975 33.2972 36.4969C33.2972 36.3368 33.1286 36.3368 33.0443 36.4969C32.0327 37.9379 30.4309 38.9786 28.239 38.8985C27.9018 38.8985 27.9018 38.4182 28.239 38.4182C29.1664 38.3382 30.0094 37.8578 30.5995 37.2174C30.6838 37.0573 30.5995 36.9772 30.5152 36.9772L29.4193 36.8171C28.8292 36.7371 28.7449 37.2174 28.5762 37.3775C28.3233 37.6177 28.1547 37.7778 27.7332 37.7778H27.2274C26.7216 37.7778 26.3844 37.5376 26.2158 37.1374C26.1314 36.8972 25.8785 36.7371 25.5413 36.8171L25.0355 36.8972C24.7826 36.9773 24.614 37.0573 24.3611 37.2975C23.6023 38.1781 22.8436 38.9786 22.0849 39.619C21.7477 39.9392 21.3262 39.619 21.5791 39.2188C22.2535 38.2581 22.675 37.5376 23.0965 36.4969C23.1808 36.2568 22.9279 36.0967 22.7593 36.3368C22.4221 36.8171 22.0849 37.2174 21.6634 37.5376C21.3262 37.8578 20.9046 37.5376 21.1576 37.1374C21.7477 36.2568 22.0849 35.6163 22.4221 34.7357C22.5064 34.4956 22.3378 34.4155 22.0849 34.4956C22.0006 34.5756 21.832 34.6557 21.6634 34.6557C21.3262 34.8158 21.0732 34.4956 21.2419 34.2554C22.0849 32.8145 23.2651 31.9339 25.2041 31.1333C25.7099 30.9732 25.8785 31.4536 25.5413 31.6937C25.2041 32.0139 24.7826 32.4142 24.5297 32.8145C24.3611 33.0546 24.614 33.2948 24.8669 33.2147C25.3727 32.8945 25.8785 32.8145 26.3844 32.8145C26.8059 32.8145 27.2274 32.8945 27.6489 32.9746C28.9978 33.2948 30.7681 33.8552 32.117 34.4155C32.6228 34.6557 32.8757 34.0953 32.5385 33.8552C30.3466 31.7738 27.3117 30.1727 24.614 29.2921C24.1925 29.132 24.3611 28.5716 24.8669 28.6517C27.0588 29.052 29.4193 29.8525 31.4426 30.9732C31.6112 31.0533 31.7798 30.9732 31.6955 30.7331C31.5269 30.4129 31.3583 30.0926 31.1896 29.7724C30.7681 29.0519 30.2623 28.4916 29.5879 28.0113C27.1431 26.3301 23.518 25.6096 20.5674 25.6096C17.6168 25.6096 13.9918 26.3301 11.547 28.0113C11.3784 28.0913 11.2941 28.1714 11.1255 28.3315C10.8725 28.4916 11.1255 28.8118 11.3784 28.7317C13.7389 27.2908 16.6052 26.8105 19.7244 26.8105C20.2302 26.8105 20.2302 27.4509 19.8087 27.5309C16.8581 27.8511 14.4133 28.5716 12.2214 29.9325C12.0528 30.0926 12.2214 30.4129 12.4743 30.2528C14.4133 29.2921 16.0151 28.8118 18.3755 28.7317C18.7971 28.7317 18.8814 29.2921 18.4598 29.3722C17.111 29.6123 15.8464 30.0926 14.4976 30.8932C14.2447 31.0533 14.2447 31.3735 14.5819 31.4536C16.0151 31.7738 17.6168 32.2541 18.8814 32.8945C19.2186 33.0546 19.4715 33.2948 19.5558 33.615C19.7244 33.9352 19.8087 34.2554 19.893 34.4956C19.9773 34.8158 19.8087 35.056 19.4715 34.8959C19.3029 34.8158 19.1343 34.7357 19.05 34.7357C18.8814 34.6557 18.7128 34.7357 18.7128 34.9759C19.05 35.8565 19.3872 36.4969 19.9773 37.3775C20.2302 37.7778 19.8087 38.098 19.4715 37.7778C19.05 37.3775 18.7128 36.9772 18.3755 36.577C18.2069 36.4169 17.954 36.4969 18.0383 36.7371C18.4598 37.6977 18.8814 38.4182 19.5558 39.4589C19.8087 39.8592 19.3872 40.1794 19.05 39.8592C18.3755 39.2188 17.954 38.5783 17.4482 37.8578C17.2796 37.6177 17.0267 37.7778 17.111 38.098C17.7011 39.4589 18.2069 40.2594 19.1343 41.4603C19.6401 41.6204 19.7244 41.8605 19.7244 42.1007ZM20.6517 68.8386C20.1459 68.8386 19.8087 68.7585 19.3872 68.4383C15.172 65.6364 11.6313 62.034 9.01787 57.8712C8.93357 57.7912 8.84927 57.7111 8.76496 57.7111C8.59636 57.7111 8.42775 57.7912 8.25915 57.7912C8.17484 57.7912 8.09054 57.8712 8.17484 58.0313C11.0412 62.5944 14.8348 66.3569 19.3872 69.3189C19.8087 69.6391 20.2302 69.7191 20.736 69.7191C21.3262 69.7191 21.6634 69.559 22.0849 69.3189C26.6373 66.3569 30.4309 62.5944 33.2972 58.0313C33.3815 57.9513 33.2972 57.7912 33.2129 57.7912C33.0443 57.7912 32.8757 57.7111 32.7071 57.7111C32.5385 57.7111 32.5385 57.7111 32.4542 57.8712C29.8408 62.034 26.3001 65.6364 22.0849 68.4383C21.4948 68.7585 21.0733 68.8386 20.6517 68.8386ZM18.6285 60.513C18.3755 61.6337 18.2912 62.3542 18.2912 63.3149C18.2912 63.7151 17.8697 63.8752 17.5325 63.6351C15.172 61.8739 13.0644 59.6324 10.9569 57.1507C10.8725 56.9906 10.7039 56.9906 10.5353 57.0707C10.5353 57.0707 10.5353 57.0707 10.451 57.0707C10.2824 57.1507 10.2824 57.3108 10.3667 57.471C12.8115 61.3135 16.0994 64.5957 19.9773 67.1574C20.1459 67.3175 20.3145 67.3175 20.5674 67.3175C20.8203 67.3175 20.9889 67.2375 21.1576 67.1574C25.0355 64.5957 28.3233 61.2335 30.7681 57.471C30.8524 57.3108 30.7681 57.1507 30.6838 57.0707C30.6838 57.0707 30.5995 57.0707 30.5995 56.9906C30.4309 56.9106 30.2623 56.9106 30.0937 57.0707C29.0821 58.2715 27.9018 59.3122 26.6373 60.2728C26.3001 60.513 25.9628 60.1127 26.2158 59.8726C27.3117 58.6718 28.239 57.6311 29.0821 56.3502C29.1664 56.1901 29.1664 56.03 28.9978 55.9499L28.9135 55.8699C28.7449 55.7898 28.6606 55.7898 28.5762 55.8699C27.2274 57.471 25.7942 58.6718 24.4454 59.5523C23.6867 60.0327 23.0122 60.2728 22.2535 60.3529C22.0849 60.3529 21.9163 60.513 22.0006 60.6731C22.2535 63.3149 21.6634 64.9159 20.5674 64.9159C19.3872 64.9159 18.7971 63.2348 19.1343 60.4329C19.2186 60.1928 18.7128 60.1127 18.6285 60.513ZM35.0676 51.7071C34.899 52.6677 34.3932 52.6677 34.3089 51.7071C34.2246 51.1467 34.3089 50.3462 34.4775 49.7058C34.6461 49.0653 35.0676 49.0653 35.0676 49.7058C35.2362 50.2661 35.2362 51.1467 35.0676 51.7071ZM33.2972 50.1861C32.96 50.1861 32.8757 49.4656 32.96 48.7451C33.0443 48.1047 33.2972 47.4643 33.6344 47.4643C33.9717 47.4643 34.1403 48.1847 34.056 48.8252C33.9717 49.5457 33.7188 50.1861 33.2972 50.1861ZM4.97131 50.9066C4.7184 51.8672 5.22422 52.0273 5.64574 51.1467C5.89865 50.6664 6.15156 49.8659 6.23586 49.2254C6.32017 48.585 5.98295 48.4249 5.64574 48.9853C5.39283 49.5457 5.05562 50.3462 4.97131 50.9066ZM7.1632 50.1861C7.50042 50.2661 7.83763 49.6257 8.09054 48.9853C8.25914 48.3448 8.25914 47.6244 7.92193 47.5443C7.58472 47.4643 7.1632 48.0246 6.9946 48.6651C6.82599 49.3055 6.82599 50.026 7.1632 50.1861ZM31.6955 1.11327C31.9484 0.953161 32.2013 0.873104 32.4542 0.953158L33.1286 1.11327C33.3815 1.19332 33.5501 1.35343 33.5501 1.59359L33.6344 2.31407C33.7188 2.63429 33.5501 2.87445 33.3815 3.03455L19.8087 12.641C18.9657 12.641 18.4598 12.5609 17.7011 12.4809L31.6955 1.11327ZM37.0909 3.35476C37.3438 3.19466 37.5967 3.19466 37.9339 3.27471L38.6083 3.51487C38.8612 3.59493 39.0299 3.75503 39.0299 4.07525V4.79573C39.0299 5.11594 38.8612 5.35611 38.6083 5.51621L20.8203 14.8024C20.6517 14.8825 20.4831 14.8825 20.3988 14.8024L20.0616 14.6423C19.893 14.5623 19.893 14.4822 19.893 14.3221V13.9218C19.893 13.8418 19.9773 13.6016 20.1459 13.5216L37.0909 3.35476ZM20.6517 24.1687C24.2768 24.1687 28.0704 25.1293 30.5995 26.8105C31.5269 27.4509 32.117 28.1714 32.7071 29.052C34.1403 31.4536 34.899 35.2161 34.899 39.0586C34.899 41.7805 34.4775 44.3422 33.8031 46.5837C33.8031 46.7438 33.803 46.7438 33.9717 46.7438C34.4775 46.7438 34.8147 46.7438 35.0676 47.144C35.4891 47.7044 35.742 48.7451 35.8263 50.026C35.8263 51.3068 35.6577 52.3475 35.2362 52.9079C34.9833 53.2281 34.8147 53.3082 34.2246 53.3082C33.7187 53.3082 33.4658 53.3082 33.2129 52.9079C32.8757 52.4276 32.6228 51.547 32.5385 50.5063C32.5385 50.3462 32.3699 50.2661 32.2856 50.4262C31.6112 51.7071 30.9367 52.9079 30.178 53.9486C30.0937 54.0286 30.0937 54.1888 30.178 54.2688C31.1053 54.9893 32.117 55.6297 33.2972 56.2702C34.6461 56.7505 35.9106 57.1507 37.2595 57.3909C37.5967 57.471 37.5967 57.9513 37.1752 57.9513C36.5008 57.9513 35.9106 57.9513 35.3205 57.8712C35.1519 57.8712 34.9833 57.8712 34.899 58.1114C31.9484 62.9947 27.9018 67.1574 23.0122 70.2795C22.2535 70.7598 21.5791 71 20.8203 71C20.0616 71 19.3029 70.7598 18.6285 70.2795C13.7389 67.1574 9.6923 62.9947 6.74169 58.1114C6.65738 57.9513 6.48878 57.8712 6.32017 57.8712C5.73005 57.9513 5.13992 57.9513 4.4655 57.9513C4.04398 57.9513 4.04398 57.471 4.38119 57.3909C5.64574 57.0707 6.91029 56.6704 8.34345 56.2702C9.43939 55.6297 10.3667 55.0693 11.2941 54.3489C11.4627 54.1888 11.547 54.0286 11.3784 53.7885C10.451 52.5076 9.608 51.0667 8.93357 49.4656C8.84927 49.3055 8.68066 49.3055 8.59636 49.4656C8.51205 49.7058 8.42775 49.9459 8.25915 50.2661C7.75333 51.3869 6.99459 52.3475 6.40447 52.6677C6.06726 52.9079 5.81435 52.8279 5.30853 52.6677C4.80271 52.4276 4.6341 52.3475 4.5498 51.9473C4.46549 51.3068 4.6341 50.1861 5.22422 49.0653C5.73004 47.9446 6.48877 46.9839 7.0789 46.6637C7.2475 46.5837 7.33181 46.5036 7.50041 46.5036C7.66902 46.5036 7.75332 46.3435 7.66902 46.1834C6.99459 43.9419 6.65738 41.5403 6.65738 38.8985C6.65738 35.056 7.41611 31.2934 8.84927 28.8918C9.35509 28.0113 10.0295 27.2908 10.9569 26.6503C13.233 25.1293 17.0267 24.1687 20.6517 24.1687Z" fill="#040202"/>
    <path fill-rule="evenodd" clip-rule="evenodd" d="M172.819 25.4496V55.3096H190.944C191.45 55.3096 191.872 54.9093 191.872 54.429C191.872 53.9487 191.45 53.5484 190.944 53.5484H174.758V41.2201H190.944C191.45 41.2201 191.872 40.8199 191.872 40.3395C191.872 39.8592 191.45 39.459 190.944 39.459H174.758V27.4509H190.944C191.45 27.4509 191.872 27.0507 191.872 26.5703C191.872 26.09 191.45 25.6898 190.944 25.6898H172.819V25.4496ZM171.639 56.4303V24.4089H190.86C191.366 24.4089 191.787 24.0086 191.787 23.5283C191.787 23.048 191.366 22.6477 190.86 22.6477H170.965C170.29 22.6477 169.7 23.128 169.7 23.7685V57.2308C169.7 57.8713 170.206 58.3516 170.965 58.3516H190.86C191.366 58.3516 191.787 57.9513 191.787 57.471C191.787 56.9907 191.366 56.5904 190.86 56.5904H171.639V56.4303ZM191.872 51.467C191.872 50.9867 191.45 50.5864 190.944 50.5864H177.793V44.022H190.944C191.45 44.022 191.872 43.6217 191.872 43.1414C191.872 42.6611 191.45 42.2608 190.944 42.2608H175.854V52.4276H190.944C191.45 52.4276 191.872 52.0274 191.872 51.467ZM129.487 57.5511C129.487 58.0314 129.909 58.4316 130.415 58.4316C130.92 58.4316 131.342 58.0314 131.342 57.5511V23.3682C131.342 22.8879 130.92 22.4876 130.415 22.4876C129.909 22.4876 129.487 22.8879 129.487 23.3682V57.5511ZM164.052 57.5511C164.052 58.0314 163.63 58.4316 163.124 58.4316C162.618 58.4316 162.197 58.0314 162.197 57.5511V23.3682C162.197 22.8879 162.618 22.4876 163.124 22.4876C163.63 22.4876 164.052 22.8879 164.052 23.3682V57.5511ZM146.769 43.3015L159.246 22.8078C159.668 22.0873 161.017 22.1674 161.017 23.2881C161.017 57.471 161.017 57.471 161.017 57.471C161.017 57.9513 160.595 58.3516 160.089 58.3516C159.584 58.3516 159.162 57.9513 159.162 57.471V29.8525L159.499 25.9299C159.499 25.7698 159.331 25.7698 159.331 25.8499L157.56 29.3722L147.191 46.4236C147.107 46.5037 147.022 46.5837 146.938 46.5837C146.854 46.5837 146.685 46.5037 146.685 46.4236L136.316 29.3722L134.546 25.8499C134.461 25.6898 134.293 25.7698 134.377 25.9299L134.714 29.8525V57.471C134.714 57.9513 134.293 58.3516 133.787 58.3516C133.281 58.3516 132.859 57.9513 132.859 57.471C132.859 57.471 132.859 57.471 132.859 23.2881C132.859 22.2475 134.208 22.0873 134.63 22.8078L146.769 43.3015ZM146.769 40.8199C146.854 40.8199 147.022 40.7398 147.022 40.6598L157.392 23.6884C158.066 22.7278 156.38 21.7671 155.706 22.8078L146.769 37.5377L137.833 22.8078C137.243 21.7671 135.557 22.7278 136.147 23.6884L146.517 40.6598C146.517 40.8199 146.685 40.8199 146.769 40.8199ZM146.769 49.1454L136.147 31.6938C135.979 31.3736 135.641 31.5337 135.641 31.8539V57.5511C135.641 58.0314 136.063 58.4316 136.569 58.4316C137.075 58.4316 137.496 58.0314 137.496 57.5511V40.8199L137.159 36.8973C137.159 36.7371 137.328 36.7371 137.328 36.8172L139.098 40.3395L145.842 51.467C146.011 51.7872 146.348 51.9473 146.685 51.8673C147.022 51.8673 147.36 51.7072 147.528 51.467L154.272 40.3395L156.043 36.8172C156.127 36.6571 156.296 36.7371 156.211 36.8973L155.874 40.8199V57.5511C155.874 58.0314 156.296 58.4316 156.802 58.4316C157.307 58.4316 157.729 58.0314 157.729 57.5511V31.8539C157.729 31.5337 157.392 31.4536 157.223 31.6938L146.769 49.1454ZM177.709 36.4169V30.1728H190.86C191.366 30.1728 191.787 29.7725 191.787 29.2922C191.787 28.8118 191.366 28.4116 190.86 28.4116H175.854V38.3382H190.944C191.45 38.3382 191.872 37.9379 191.872 37.4576C191.872 36.9773 191.45 36.577 190.944 36.577H177.709V36.4169Z" fill="#CA17A8"/>
    <path fill-rule="evenodd" clip-rule="evenodd" d="M101.414 28.4915V52.3475C101.414 54.2687 102.51 56.11 104.365 57.1507C105.545 57.7911 106.978 58.1914 108.496 58.1914H113.217C114.734 58.1914 116.083 57.7911 117.348 57.1507C119.202 56.11 120.298 54.2687 120.298 52.3475V28.4915C120.298 27.691 120.13 26.9705 119.792 26.25L121.647 24.4888C121.984 24.1686 121.984 23.6883 121.647 23.4481L119.455 21.3667C119.118 21.0465 118.612 21.0465 118.359 21.3667L116.336 23.288C115.409 22.8878 114.313 22.7277 113.217 22.7277H108.411C106.894 22.7277 105.545 23.1279 104.281 23.7684C102.426 24.729 101.414 26.5702 101.414 28.4915ZM59.5154 53.7884H66.5126C68.0301 53.7884 69.3789 53.3882 70.6435 52.7477C72.4981 51.707 73.5941 49.8658 73.5941 47.9445V28.4915C73.5941 26.5702 72.4981 24.729 70.6435 23.6883C69.4632 23.0479 68.0301 22.6476 66.5126 22.6476H55.5532C55.1316 22.6476 54.7944 22.9678 54.7944 23.3681V57.4709C54.7944 57.8712 55.1316 58.1914 55.5532 58.1914H58.6724C59.0939 58.1914 59.4311 57.8712 59.4311 57.4709V53.7884H59.5154ZM59.5154 27.0506H67.4399C68.283 27.0506 68.9574 27.691 68.9574 28.4915V47.9445C68.9574 48.7451 68.283 49.3855 67.4399 49.3855H59.5154V27.0506ZM92.0565 42.661H82.6988V57.4709C82.6988 57.8712 82.3616 58.1914 81.9401 58.1914H78.8209C78.3994 58.1914 78.0622 57.8712 78.0622 57.4709V23.3681C78.0622 22.9678 78.3994 22.6476 78.8209 22.6476H81.9401C82.3616 22.6476 82.6988 22.9678 82.6988 23.3681V38.178H92.0565V23.3681C92.0565 22.9678 92.3937 22.6476 92.8153 22.6476H95.9345C96.356 22.6476 96.6932 22.9678 96.6932 23.3681V57.4709C96.6932 57.8712 96.356 58.1914 95.9345 58.1914H92.8153C92.3937 58.1914 92.0565 57.8712 92.0565 57.4709V42.661ZM113.975 27.0506H107.568C106.725 27.0506 106.051 27.691 106.051 28.4915V52.3475C106.051 53.148 106.725 53.7884 107.568 53.7884H113.975C114.818 53.7884 115.493 53.148 115.493 52.3475V28.4915C115.493 27.691 114.818 27.0506 113.975 27.0506Z" fill="#040202"/>
</svg>
