<svg width="23" height="23" viewBox="0 0 23 23" fill="none" xmlns="http://www.w3.org/2000/svg">
    <path d="M0.5 11.5C0.5 5.42487 5.42487 0.5 11.5 0.5C17.5751 0.5 22.5 5.42487 22.5 11.5C22.5 17.5751 17.5751 22.5 11.5 22.5C5.42487 22.5 0.5 17.5751 0.5 11.5Z" fill="white" stroke="#FABD00"/>
    <path d="M8.89844 10.5938H13.6953C14.0234 10.5938 14.2917 10.6797 14.5 10.8516C14.7135 11.0234 14.8203 11.2682 14.8203 11.5859C14.8203 11.8932 14.7109 12.138 14.4922 12.3203C14.2786 12.5026 14.013 12.5938 13.6953 12.5938H8.89844C8.58073 12.5938 8.3151 12.5052 8.10156 12.3281C7.88802 12.1458 7.78125 11.8984 7.78125 11.5859C7.78125 11.2734 7.88802 11.0312 8.10156 10.8594C8.3151 10.6823 8.58073 10.5938 8.89844 10.5938Z" fill="#FABD00"/>
</svg>
