<svg width="23" height="23" viewBox="0 0 23 23" fill="none" xmlns="http://www.w3.org/2000/svg">
    <rect x="0.5" y="0.5" width="22" height="22" rx="11" fill="white" stroke="#F9B233"/>
    <path d="M16.1281 12.3711H12.3668V16.1289C12.3668 16.7096 12.0762 17 11.4949 17C10.9204 17 10.6332 16.7096 10.6332 16.1289V12.3711H6.87189C6.29063 12.3711 6 12.0807 6 11.5C6 10.9193 6.29063 10.6289 6.87189 10.6289H10.6332V6.87109C10.6332 6.29036 10.9204 6 11.4949 6C12.0762 6 12.3668 6.29036 12.3668 6.87109V10.6289H16.1281C16.7094 10.6289 17 10.9193 17 11.5C17 12.0807 16.7094 12.3711 16.1281 12.3711Z" fill="#FABD00"/>
</svg>
