<svg width="244" height="114" viewBox="0 0 244 114" fill="none" xmlns="http://www.w3.org/2000/svg">
    <path fill-rule="evenodd"
          clip-rule="evenodd"
          d="M14.0374 84.3117C14.3313 84.3117 14.6253 84.3117 14.8458 84.2386C15.2868 84.2386 15.6542 84.3848 15.8747 84.7505C19.2554 90.7466 24.0325 95.8653 29.7651 99.6677C30.5 100.18 31.2349 100.399 32.1169 100.399C32.9988 100.399 33.7337 100.106 34.4687 99.6677C40.2012 95.7922 44.9048 90.6735 48.359 84.7505C48.5795 84.3848 48.947 84.1655 49.388 84.2386C49.6819 84.2386 49.9759 84.2386 50.1964 84.3117C49.0205 84.0192 47.9181 83.5805 46.7422 83.2149H46.6687H46.5952C45.2723 82.4836 44.0964 81.6793 42.9205 80.7287C42.553 80.4362 42.553 79.9974 42.7735 79.6318C43.7289 78.2424 44.5374 76.78 45.1988 75.3175C45.4928 74.6594 46.4482 74.8056 46.5217 75.5369C46.5952 76.3412 46.8157 77.5843 47.2566 78.2424C47.4771 78.5349 47.6241 78.4618 47.9916 78.4618C48.359 78.4618 48.506 78.4618 48.7265 78.1693C49.241 77.365 49.388 75.7562 49.3145 74.8788C49.3145 73.9281 49.094 72.3925 48.5795 71.5882C48.359 71.2957 48.0651 71.3688 47.6976 71.3688C47.1831 71.3688 46.8892 70.9301 47.0362 70.4913C47.9181 67.4932 48.359 64.4221 48.359 61.2777C48.359 57.4753 47.7711 52.5029 45.8602 49.1392C45.2723 48.1154 44.5374 47.238 43.5819 46.5067C40.4952 44.313 35.9386 43.2893 32.1904 43.2893C28.3687 43.2893 23.8855 44.2399 20.7988 46.5067C19.8434 47.238 19.1084 48.0423 18.5205 49.1392C16.6096 52.5029 16.0217 57.4022 16.0217 61.2777C16.0217 64.2758 16.3892 67.2008 17.1976 70.1257C17.3446 70.6376 17.0506 71.0763 16.5362 71.1494C16.4627 71.1494 16.3892 71.2226 16.3157 71.2226C15.5072 71.7344 14.6988 73.1238 14.3313 74.0013C13.9639 74.8787 13.4494 76.3412 13.5964 77.2918C13.6699 77.6575 13.8169 77.6575 14.1843 77.8037C14.4783 77.95 14.6988 78.0962 14.9928 77.8768C15.8012 77.365 16.6096 75.9756 16.9771 75.0981C17.1241 74.8056 17.1976 74.5131 17.3446 74.2206C17.5651 73.4894 18.3735 73.4894 18.6675 74.1475C19.4759 75.9756 20.4313 77.7306 21.5337 79.4124C21.8277 79.8512 21.8277 80.4362 21.3133 80.8018C20.2109 81.6793 19.0349 82.4836 17.7856 83.1417H17.7121H17.6386C16.3157 83.6536 15.1398 84.0192 14.0374 84.3117Z" fill="white"/>
    <path fill-rule="evenodd" clip-rule="evenodd" d="M14.8458 71.5151H14.9928C15.2132 71.2226 15.5072 71.0032 15.8012 70.7838C15.9482 70.7107 16.0952 70.6376 16.2422 70.6376C16.4626 70.6376 16.6096 70.4182 16.5361 70.1989C15.7277 67.2739 15.3602 64.2758 15.3602 61.2046C15.3602 57.2559 16.0217 52.3566 17.9325 48.8467C18.5205 47.7499 19.3289 46.7992 20.3578 46.068C23.5181 43.8012 28.1482 42.7774 32.0434 42.7774C35.9385 42.7774 40.4952 43.8012 43.7289 46.068C44.7578 46.7992 45.5662 47.7499 46.1542 48.8467C48.065 52.3566 48.7265 57.2559 48.7265 61.2046C48.7265 64.3489 48.2855 67.4933 47.4036 70.4914C47.3301 70.7107 47.4036 70.857 47.6241 70.7838C48.1385 70.7838 48.506 70.7107 48.8735 71.2226C48.947 71.2957 48.947 71.3688 49.0205 71.442H49.1675C50.2699 70.7838 51.0048 69.7601 51.5193 68.5901C52.8421 65.3727 54.0181 62.1552 55.047 58.8647C55.6349 57.1097 55.6349 55.2816 55.2674 53.5266C54.9735 52.0641 54.5325 50.6748 54.0915 49.2123C54.0181 48.9198 54.0181 48.6273 54.0915 48.3348C55.4144 44.0937 56.6638 38.975 55.6349 34.5876C55.3409 33.4176 54.8265 32.6863 53.6506 32.3938C51.8867 31.882 49.9759 31.8089 48.1385 32.1014C47.7711 32.1745 47.4036 31.9551 47.3301 31.5895C47.1831 30.7851 47.0361 30.0539 46.8156 29.3226C46.6687 28.8839 46.5217 28.4452 46.2277 28.0795C45.6397 27.2021 44.5373 27.1289 43.5819 27.5677L33.8807 31.882C32.7783 32.3938 32.0434 30.8583 33.0723 30.2733C33.6602 29.8345 34.1747 29.3958 34.7626 28.957L34.8361 28.8839C33.8807 29.0302 32.8518 29.0302 31.8964 29.0302C28.5157 29.0302 25.2084 28.372 22.1217 27.0558C19.8434 26.1052 17.712 26.9096 16.9771 29.3226C16.7566 30.0539 16.6096 30.7851 16.4626 31.5164C16.3891 31.9551 16.0217 32.1745 15.5807 32.1014C13.7434 31.8089 11.906 31.9551 10.1422 32.3938C8.96626 32.7595 8.4518 33.4907 8.15783 34.5876C7.12891 38.975 8.4518 44.1668 9.77469 48.4811C9.84819 48.7736 9.84819 48.993 9.77469 49.2123C9.33373 50.6748 8.89276 52.1373 8.59879 53.5998C8.23132 55.3547 8.23132 57.1828 8.81927 58.9378C9.84819 62.2284 11.0241 65.4458 12.347 68.6633C13.0084 69.9064 13.7434 70.857 14.8458 71.5151Z" fill="#CF7CB1"/>
    <path fill-rule="evenodd" clip-rule="evenodd" d="M49.1675 36.4157C49.3144 35.9038 49.3879 35.5382 49.4614 35.0263C49.5349 34.5144 50.0494 34.5144 50.1964 34.9532C50.4903 36.1232 50.7108 37.22 50.9313 38.5362C51.0048 38.9019 51.4458 38.975 51.5928 38.5362C51.8132 37.3663 51.8867 36.1963 51.8867 35.0263C51.8867 34.5144 52.4747 34.4413 52.6217 34.9532C53.2831 37.22 53.6506 39.7062 53.6506 42.1193C53.6506 42.6312 54.2385 42.6312 54.312 42.2656C54.9 39.7794 54.9 37.22 54.3855 35.0263C54.2385 34.3682 54.0181 34.0026 53.3566 33.7832C51.6662 33.3445 49.9759 33.1982 48.2855 33.4907C48.1385 33.4907 48.065 33.637 48.065 33.7832C48.065 34.0757 48.065 34.3682 48.065 34.6607C48.065 34.8801 48.1385 35.2457 48.2855 35.465C48.506 35.8307 48.7265 36.1232 48.8735 36.4888C49.0205 36.5619 49.1675 36.635 49.1675 36.4157ZM46.7422 42.9968C46.6687 42.9237 46.5952 42.7774 46.6687 42.7043C47.1831 41.3881 47.6241 39.9987 47.8446 38.5362C47.8446 38.39 47.9916 38.39 48.065 38.5362C50.7108 43.3624 52.8422 48.7005 54.0181 53.9654C54.3855 55.501 54.312 57.1097 53.8711 58.5722C53.2096 60.5465 52.5482 62.5208 51.8132 64.4952C51.6663 64.9339 51.1518 64.7877 51.1518 64.3489C51.1518 61.6434 50.5638 59.669 49.4614 57.6947C49.241 57.3291 49.6084 57.1097 49.9024 57.3291C50.7108 58.0603 51.2988 59.0109 51.8867 60.0346C52.1072 60.4003 52.6217 60.1809 52.5482 59.7421C52.1072 57.914 50.7843 55.5741 49.241 54.1116C49.0205 53.8922 49.241 53.5266 49.5349 53.6729C50.9313 54.4041 51.8132 55.1353 52.8422 56.3785C53.1361 56.7441 53.6506 56.3053 53.4301 55.9397C52.3277 54.0385 50.5638 52.3566 48.7265 51.3329C48.4325 51.1867 48.653 50.821 48.947 50.8942C50.1964 51.1867 51.2253 51.5523 52.4747 52.2835C52.8422 52.5029 53.2096 51.9179 52.8422 51.6254C51.0048 50.0898 49.1675 49.0661 47.1096 48.1886C46.6687 47.9692 46.8157 47.3842 47.3301 47.5305C48.653 47.8961 49.8289 48.2617 51.2988 48.9198C51.6663 49.0661 51.9602 48.4811 51.5928 48.2617C49.8289 47.0186 47.9181 45.9217 45.9337 45.1905C45.5663 45.0443 45.7132 44.5324 46.0807 44.6055C47.3301 44.8249 48.5795 45.2636 49.8289 45.7755C50.2699 45.9217 50.4903 45.4099 50.1229 45.1905C48.8735 44.1668 47.7711 43.5087 46.7422 42.9968ZM34.9831 32.1745C35.2036 34.4413 35.2036 36.2694 34.9831 38.6094C34.9096 39.0481 35.3506 39.1944 35.5711 38.6825C36.6735 35.9769 36.453 34.2951 35.5711 32.1014C35.3506 31.8089 34.9096 31.882 34.9831 32.1745ZM37.6289 31.4432C38.2169 34.2951 38.2169 36.8544 37.8494 39.7794C37.7759 40.145 38.2169 40.2181 38.3638 39.9256C39.7602 36.9275 39.6132 34.2951 38.1434 31.297C37.9964 30.9314 37.5554 31.0776 37.6289 31.4432ZM40.7891 30.127C41.965 33.9294 42.1855 36.3425 41.3771 40.9493C41.3036 41.3881 41.7446 41.5343 41.965 41.1687C43.8759 36.9275 43.5819 33.8563 41.3036 29.9808C41.0831 29.6151 40.7157 29.7614 40.7891 30.127ZM32.1903 32.6132C31.7494 34.8069 31.6024 35.9769 31.9699 38.2438C32.0434 38.6094 32.4108 38.6094 32.4843 38.2438C32.9988 36.05 33.0723 34.7338 32.7783 32.6132C32.7783 32.1745 32.3373 32.1745 32.1903 32.6132ZM18.153 38.7556C17.5651 35.8307 17.6385 32.6863 18.447 29.6151C18.741 28.5183 19.4759 27.9333 20.3578 27.9333C20.5783 27.9333 20.7253 28.0064 20.7253 28.2989C20.7988 29.4689 20.8723 30.3464 21.0928 31.4432C21.1663 31.882 21.6072 31.9551 21.8277 31.5164C22.2687 30.6389 22.7096 29.9076 23.2976 29.0302C23.5181 28.7377 23.8855 28.7377 23.8855 29.1764C23.959 30.2001 24.0325 31.4432 24.3265 32.5401C24.4735 33.052 24.9879 33.1251 25.2084 32.6863C25.5759 31.882 25.8699 31.1507 26.3108 30.2733C26.4578 29.9808 26.8988 30.0539 26.8988 30.4195C27.0458 31.5164 27.1193 32.2476 27.3398 33.4176C27.4132 33.8563 28.0012 33.9294 28.1482 33.4907C28.3687 32.7595 28.5891 32.0282 29.0301 31.1507C29.1771 30.8582 29.5446 30.9314 29.5446 31.297C29.5446 31.8089 29.5446 32.467 29.6181 32.9788C29.6181 33.2713 29.7651 33.4907 29.912 33.5638C30.206 33.7832 30.5 33.8563 30.5 34.1488C30.5 34.3682 30.2795 34.6607 30.1325 34.9532C29.912 35.5382 29.7651 36.05 29.7651 36.635C29.6916 37.5856 29.6916 38.4631 29.5446 39.4137C29.4711 39.9256 28.9566 39.9256 28.8096 39.4869C28.5157 38.1706 28.2952 36.8544 28.1482 35.5382C28.0747 35.0994 27.5602 35.0994 27.4132 35.5382C26.9723 37.5125 26.7518 39.1212 26.4578 41.0956C26.3843 41.5343 25.9434 41.6074 25.7964 41.1687C25.2819 39.6331 25.0614 38.0975 24.9144 36.635C24.841 36.1963 24.253 36.1232 24.106 36.635C23.7385 38.7556 23.5916 40.5106 23.5181 42.7774C23.5181 43.143 23.0771 43.2893 22.9301 42.9237C22.1952 41.3881 21.7542 39.7062 21.4602 37.805C21.3867 37.2931 20.7253 37.3663 20.6518 37.8781C20.5783 39.9987 20.6518 41.9731 20.9458 43.8012C20.9458 44.0937 20.6518 44.2399 20.4313 44.0205C19.4024 42.7774 18.5205 40.3643 18.153 38.7556ZM11.906 41.2418C11.0241 39.4137 10.6566 37.2931 10.6566 34.6607C10.6566 34.0757 10.0687 34.0026 9.84819 34.5144C9.77469 34.6607 9.7012 34.8069 9.7012 35.0263C8.96626 38.1706 9.55421 41.8268 10.4361 45.3368C10.5096 45.6293 10.8036 45.6293 10.8771 45.3368C11.1711 44.6055 11.4651 43.9474 11.759 43.2162C12.1265 42.4118 12.2735 41.8999 11.906 41.2418ZM18.5205 45.3368C16.6831 45.7024 14.7723 46.3605 13.3024 47.238C12.9349 47.4573 13.1554 48.0423 13.6699 47.8961C14.9928 47.4573 16.3157 47.1649 17.6385 47.0917C18.0795 47.0917 18.153 47.6767 17.7855 47.823C15.7277 48.408 13.6699 49.5779 12.2 50.8942C11.8325 51.1867 12.2 51.6985 12.5675 51.4792C13.6699 50.821 14.9193 50.3092 16.1687 49.8704C16.6831 49.7242 16.8301 50.3823 16.4626 50.6017C14.6253 51.6254 12.8614 53.161 11.612 54.7697C11.3916 55.1353 11.759 55.501 12.1265 55.2085C13.1554 54.4041 14.1108 53.6729 15.1398 53.0879C15.5807 52.8685 15.8747 53.3804 15.5807 53.746C13.9638 55.2085 12.7879 56.8903 11.8325 59.1572C11.612 59.7421 12.2 60.0346 12.4205 59.5959C13.0084 58.7184 13.8169 57.7678 14.6253 57.1097C14.9928 56.8172 15.3602 57.2559 15.1398 57.6216C13.8904 59.8153 13.3759 62.009 13.4494 64.8608C13.4494 65.2996 14.1108 65.2996 14.1108 64.8608C14.3313 63.1058 14.7723 61.424 15.6542 59.8153C15.8012 59.5959 16.0217 59.669 16.0217 59.9615C15.9482 63.3252 16.3157 66.6889 17.1976 69.9795C17.3446 70.4913 17.0506 70.9301 16.5361 71.0032C16.4626 71.0032 16.3891 71.0763 16.3157 71.0763C16.1687 71.1495 16.0217 71.2957 15.8747 71.442C15.7277 71.442 15.5072 71.442 15.3602 71.442C14.1843 70.7838 13.3024 69.7601 12.7144 68.2976C11.3916 65.1533 10.2157 61.9359 9.18674 58.5722C8.59879 56.6709 8.59879 54.7697 8.96626 53.0148C9.26023 51.5523 9.7012 50.0898 10.1422 48.6273C10.2157 48.408 10.2157 48.2617 10.1422 48.1155C8.74578 43.5087 7.49638 38.4631 8.52529 34.0026C8.81927 32.6863 9.48072 31.8089 10.8036 31.4432C12.641 30.9314 14.5518 30.7851 16.4626 31.0776C16.6096 31.0776 16.7566 31.0776 16.8301 30.8582C16.9771 30.127 17.1241 29.3226 17.3446 28.5914C18.0795 25.959 20.4313 24.9352 23.0771 26.0321C26.0169 27.2752 29.2506 27.9333 32.6313 27.9333C34.3217 27.9333 35.9385 27.787 37.4819 27.4946C36.5265 28.1527 35.7916 28.6645 35.7916 28.6645C35.0566 29.1764 34.7626 29.4689 34.0277 30.0539C33.5132 30.3464 33.8072 31.1507 34.3952 30.8582L43.5084 27.0558C44.6843 26.5439 45.9337 26.6902 46.6687 27.787C46.9626 28.1527 47.1831 28.6645 47.3301 29.1764C47.5506 29.9808 47.6976 30.712 47.8446 31.5164C47.8446 31.5895 47.9181 31.7357 48.1385 31.6626C50.0494 31.3701 52.0337 31.4432 53.8711 31.9551C55.194 32.3207 55.8554 33.1982 56.1494 34.5144C57.1783 38.9019 56.0024 43.9474 54.606 48.5542C54.5325 48.7005 54.5325 48.993 54.606 49.2123C55.047 50.6748 55.4144 52.1373 55.7819 53.5266C56.1494 55.2816 56.2229 57.1828 55.5614 59.084C54.459 62.4477 53.2831 65.6652 52.0337 68.8095C51.4458 70.272 50.5638 71.2957 49.3879 71.9538C49.1675 71.9538 49.0205 71.9538 48.8 71.9538C48.8 71.9538 48.8 71.9538 48.8 71.8807C48.5795 71.5882 48.2855 71.6613 47.9181 71.6613C47.4036 71.6613 47.1096 71.2226 47.2566 70.7838C48.1385 67.7858 48.5795 64.7146 48.5795 61.5702C48.5795 57.7678 47.9916 52.7954 46.0807 49.4317C45.4928 48.408 44.7578 47.5305 43.8024 46.7992C40.7156 44.6055 36.159 43.5818 32.4108 43.5818C28.5891 43.5818 23.1506 44.6786 20.2108 47.3842C19.8434 46.8724 19.4759 46.2874 19.1819 45.7755C18.741 45.3368 18.594 45.3368 18.5205 45.3368ZM17.1976 42.7774C16.4626 43.143 15.7277 43.5818 14.9928 44.0205C14.5518 44.313 14.8458 44.898 15.2867 44.7518C16.0952 44.3862 16.8301 44.1668 17.6385 43.9474C17.859 43.8743 17.859 43.728 17.7855 43.6549C17.712 43.4355 17.5651 43.143 17.4916 42.9237C17.4916 42.7043 17.3446 42.7043 17.1976 42.7774ZM44.6108 28.2258C45.0518 28.5183 45.4193 28.957 45.5663 29.6151C46.9626 34.5876 46.2277 39.7794 43.9494 44.0937C43.8024 44.3861 43.3614 44.2399 43.4349 43.8743C45.1253 37.8781 45.5662 34.7338 44.1699 28.5914C44.0964 28.2258 44.2434 28.0064 44.6108 28.2258Z" fill="#98398D"/>
    <path fill-rule="evenodd" clip-rule="evenodd" d="M17.2711 57.8409C17.712 58.3528 18.0795 58.7184 18.5205 59.084C18.741 59.2303 19.0349 59.3034 19.2554 59.1571C20.5783 58.3528 21.6807 57.8409 23.0771 57.2559C23.8855 56.9634 24.9879 56.9634 25.8699 57.1828C26.4578 57.329 26.8988 57.5484 27.4132 57.7678C27.7072 57.914 27.8542 57.6947 27.7072 57.4022C26.9723 56.3784 25.8699 55.7203 24.6205 55.6472C23.3711 55.6472 21.9012 56.0128 20.4313 56.5978C20.0638 56.7441 19.8434 56.4516 20.0638 56.0859C20.7988 54.9891 21.8277 53.9654 22.9301 53.161C23.2241 52.9416 23.0771 52.6491 22.7096 52.7223C21.3132 53.0879 20.1373 53.746 19.1819 54.331C18.741 54.6235 18.594 54.9891 18.594 55.501C18.594 56.3053 18.8145 57.2559 18.9614 58.2797C19.0349 58.5722 18.6675 58.6453 18.5205 58.4259C18.153 57.8409 17.7855 57.1828 17.4916 56.5247C17.4181 56.3053 17.1241 56.3053 17.0506 56.5247C17.0506 56.9634 16.9036 57.329 17.2711 57.8409ZM17.859 68.517C17.2711 64.9339 20.2843 61.6434 23.7385 61.0584C24.106 60.9852 24.1795 60.4734 23.7385 60.4002C23.0771 60.3271 22.4892 60.3271 21.9012 60.3271C21.1663 60.3271 20.3578 60.5465 19.6229 60.9121C18.8879 61.3509 18.0795 61.9359 17.3446 62.5208C16.9036 62.8865 16.4626 62.2283 16.9771 61.8627C17.4916 61.5702 18.2265 61.2046 18.8145 60.9121C19.0349 60.7659 19.0349 60.4734 18.741 60.4734C18.0795 60.4734 17.5651 60.4734 17.0506 60.4734C16.3892 60.4734 16.5361 59.7421 17.0506 59.8153C17.5651 59.8884 18.006 60.0346 18.5205 60.1078C18.9614 60.1809 19.3289 60.1809 19.7699 60.0346C20.5048 59.669 21.4602 59.3034 22.1952 59.084C22.4157 59.0109 22.5626 59.0109 22.7096 59.1571C22.9301 59.4496 23.2241 59.669 23.6651 59.669H24.253C24.841 59.669 25.2084 59.3765 25.4289 58.8647C25.5024 58.7184 25.7229 58.6453 25.7229 58.8647C25.7229 60.254 25.3554 61.6434 24.4735 62.8865C24.1795 63.3252 24.6205 63.6908 24.9879 63.3252C25.7964 62.5208 26.3108 61.6434 26.6783 60.4002C26.7518 60.1078 27.1193 60.1078 27.1193 60.4002C27.2663 61.4971 27.3398 62.5208 27.3398 63.6908C27.3398 64.0564 27.2663 64.2027 26.9723 64.4952C26.3108 65.1533 25.7964 65.9577 25.6494 66.9083C25.2084 69.6138 24.0325 71.8076 21.7542 71.8076C19.4024 71.8807 18.2265 70.4913 17.859 68.517ZM28.2217 67.5664H28.9566C29.2506 67.5664 29.3976 67.4201 29.4711 67.2008C29.6181 66.5427 29.3976 65.3727 29.1036 65.3727C28.4422 65.3727 27.8542 66.5427 27.8542 67.1276C27.7072 67.4201 27.9277 67.5664 28.2217 67.5664ZM32.0434 76.4875C32.7048 76.4875 33.3663 76.4875 33.9542 76.4144C34.6157 76.3412 34.9096 76.4144 35.1301 76.9262C35.2036 77.0725 35.2771 77.2919 35.4241 77.4381C35.4976 77.5843 35.6446 77.6575 35.7916 77.5112C36.6735 76.8531 37.4084 76.1219 38.1434 75.3175C38.4373 75.025 38.8783 75.3175 38.5108 75.6831C37.7024 76.78 36.894 77.6575 35.9386 78.6081C35.3506 79.1931 34.6157 79.5587 33.9542 79.5587C33.3663 79.5587 32.7048 79.6318 31.9699 79.6318C31.2349 79.6318 30.5735 79.6318 29.9855 79.5587C29.3241 79.4856 28.5891 79.1931 28.0012 78.6081C27.0458 77.6575 26.2373 76.78 25.4289 75.6831C25.1349 75.3175 25.5759 75.025 25.7964 75.3175C26.5313 76.1219 27.2663 76.8531 28.1482 77.5112C28.2952 77.5843 28.4422 77.5843 28.5157 77.4381C28.5891 77.2919 28.6626 77.0725 28.8096 76.9262C29.0301 76.4144 29.3241 76.3412 29.9855 76.4144C30.7205 76.4144 31.3819 76.4875 32.0434 76.4875ZM32.0434 71.8076C29.5446 71.8076 28.1482 72.5388 25.9434 73.0507C26.3843 73.5625 27.1193 73.9282 28.0012 73.9282C29.7651 73.9282 30.353 73.5625 32.0434 73.5625C33.7337 73.5625 34.3217 73.9282 36.0855 73.9282C36.9675 73.9282 37.7759 73.5625 38.1434 73.0507C35.9386 72.4657 34.5422 71.8076 32.0434 71.8076ZM21.9012 74.5131C22.5626 74.2938 23.0771 75.0981 23.2241 75.9756C23.6651 78.2425 24.547 80.0705 25.9434 81.9718C26.3108 82.4836 25.7964 82.9955 25.3554 82.4836C24.0325 81.1674 22.9301 79.6318 21.9012 78.0962C21.4602 77.365 20.5783 74.9519 21.9012 74.5131ZM34.1747 70.272C33.8807 70.1988 33.9542 69.8332 34.2482 69.8332H35.3506C36.747 69.8332 37.2614 69.1751 37.9229 69.4676C38.4373 69.687 38.2904 70.272 38.8048 70.6376L39.4663 71.1495C39.7602 71.3688 39.6132 71.7344 39.3193 71.6613C38.5108 71.4419 37.7759 71.2226 36.9675 71.0032C36.0855 70.7107 35.2036 70.4182 34.1747 70.272ZM27.2663 70.9301C27.8542 70.7838 28.4422 70.5645 29.0301 70.4913C29.6181 70.3451 30.206 70.272 30.8675 70.1988C31.3084 70.1257 31.3084 69.6138 30.8675 69.4676L30.2795 69.3214C29.3976 69.102 28.7361 69.2482 28.0747 69.7601L27.0458 70.5645C26.7518 70.6376 26.8988 71.0032 27.2663 70.9301ZM36.012 60.3271C35.4976 61.3509 34.9831 62.2283 34.1012 63.2521C33.7337 63.6908 34.1012 64.1296 34.6157 63.8371C35.6446 63.2521 37.041 62.1552 37.041 61.2046C37.041 60.839 36.894 60.4734 36.747 60.254C36.5265 59.9615 36.159 60.0346 36.012 60.3271ZM43.2145 56.4516C43.8759 56.6709 44.0964 57.1097 44.2434 57.5484C44.2434 57.6947 44.2434 57.8409 44.0229 57.7678L41.3036 57.1828C40.2012 56.9634 39.0988 56.8903 38.2904 57.1097C37.7024 57.2559 37.2614 57.4753 36.747 57.6947C36.453 57.8409 36.306 57.6215 36.453 57.3291C37.1879 56.3053 38.2904 55.6472 39.5398 55.5741C40.6422 55.6472 41.9651 56.0128 43.2145 56.4516ZM31.0145 65.0071C31.0145 65.1533 30.941 65.4458 30.8675 65.592C30.7205 65.8114 30.5735 66.1039 30.5735 66.4695V66.8351C30.5735 67.2008 30.647 67.4933 30.8675 67.7126C31.0145 67.8589 31.0879 67.932 31.3084 67.932H32.3373C32.7783 67.932 33.0723 67.8589 33.3663 67.5664C33.6602 67.2739 33.8807 67.2008 34.2482 67.2008H34.3952C35.0566 67.2008 35.2036 67.5664 35.8651 67.5664H36.012C36.306 67.5664 36.453 67.4201 36.453 67.1276C36.453 66.6158 35.9385 65.8114 35.4241 65.2264C35.1301 64.9339 35.4241 64.3489 35.8651 64.4952C36.9675 64.8608 37.9964 65.7383 38.5843 66.9083C39.6132 69.0289 40.9361 69.9795 42.6265 70.5645C43.2145 70.7838 43.5084 71.2957 43.3614 71.9538C42.4795 74.8788 41.1566 77.95 39.2458 80.5824C38.9518 80.948 38.5108 80.6555 38.6578 80.2168C39.3928 78.6812 39.9072 77.4381 40.3482 75.9025C40.4217 75.5369 39.9807 75.3906 39.9072 75.6831C38.2904 79.8512 36.012 82.5568 32.9253 82.5568C32.1169 82.5568 31.6024 82.3374 30.5735 82.3374C29.5446 82.3374 28.7361 82.9224 28.7361 83.9461C28.7361 84.9698 29.4711 85.7742 31.2349 85.9936C31.5289 85.9936 31.8229 85.9936 32.1169 85.9936C33.5132 85.9936 34.6157 85.9205 35.7916 85.1161C38.8048 83.0686 41.5241 79.6318 43.2145 76.4875C45.7867 71.8076 47.1096 66.5427 47.1096 61.2777C47.1096 60.3271 47.0361 59.3034 46.9626 58.2797C46.9626 58.0603 46.7422 58.0603 46.6687 58.2065C45.4193 59.9615 43.5819 61.2777 41.0096 61.1315C40.5687 61.1315 40.6422 60.5465 41.0096 60.4734C42.112 60.3271 43.141 59.8153 43.8024 58.9378C43.9494 58.7915 43.8024 58.6453 43.6554 58.6453L42.259 58.499C41.5976 58.4259 41.4506 59.0109 41.3036 59.1571C41.0831 59.4496 40.7892 59.669 40.3482 59.669H39.6867C39.0988 59.669 38.6578 59.3765 38.5108 58.8647C38.4373 58.499 38.1434 58.4259 37.7759 58.499L37.1879 58.5722C36.894 58.6453 36.6735 58.7915 36.3795 59.084C35.4976 60.1809 34.6157 61.1315 33.6602 61.9359C33.2193 62.3015 32.7783 61.8627 33.0723 61.424C33.8807 60.254 34.3952 59.3034 34.9096 58.1334C35.0566 57.8409 34.6892 57.6947 34.5422 57.914C34.1747 58.499 33.7337 58.9378 33.2193 59.4496C32.8518 59.8153 32.2639 59.4496 32.6313 58.9378C33.2928 57.8409 33.7337 57.0366 34.1012 56.0128C34.1747 55.7203 33.9542 55.6472 33.7337 55.7203C33.5867 55.7934 33.4398 55.8666 33.2193 55.9397C32.8518 56.0859 32.5578 55.7935 32.7048 55.4278C33.7337 53.5997 35.1301 52.5029 37.4084 51.6254C37.9964 51.406 38.2169 51.991 37.8494 52.2835C37.4084 52.6491 36.9675 53.161 36.6735 53.6729C36.453 53.9654 36.747 54.331 37.041 54.1116C37.6289 53.746 38.2169 53.5997 38.8783 53.5997C39.3928 53.5997 39.8337 53.6729 40.4217 53.8191C42.0385 54.1847 44.0964 54.8428 45.6398 55.5741C46.2277 55.8666 46.5217 55.2085 46.1542 54.8428C43.5084 52.2835 39.9807 50.3092 36.8205 49.2123C36.306 48.9929 36.453 48.3348 37.1145 48.4079C39.6867 48.8467 42.4795 49.8704 44.9048 51.3329C45.0518 51.406 45.2723 51.2598 45.1988 51.0404C45.0518 50.6017 44.8313 50.236 44.6108 49.8704C44.0964 48.9929 43.5084 48.2617 42.7 47.6767C39.8337 45.6292 35.5711 44.7518 32.0434 44.7518C28.5157 44.7518 24.253 45.6292 21.3867 47.6767C21.2398 47.823 21.0928 47.8961 20.8723 48.0423C20.5783 48.2617 20.9458 48.7004 21.1663 48.4811C23.959 46.7261 27.3398 46.068 31.0145 46.068C31.6024 46.068 31.6024 46.8723 31.0879 46.9455C27.6337 47.3111 24.694 48.2617 22.1217 49.9436C21.9012 50.0898 22.0482 50.5285 22.4157 50.3823C24.694 49.2123 26.6048 48.5542 29.3976 48.4811C29.912 48.4811 29.9855 49.1392 29.4711 49.2854C27.8542 49.6511 26.3843 50.1629 24.841 51.1135C24.547 51.3329 24.547 51.6985 24.9145 51.7716C26.5313 52.1373 28.5157 52.7954 29.9855 53.5266C30.353 53.746 30.647 54.0385 30.794 54.4041C30.941 54.7697 31.0879 55.2085 31.2349 55.501C31.3819 55.8666 31.0879 56.1591 30.7205 56.0128C30.5735 55.9397 30.353 55.8666 30.206 55.7935C29.9855 55.7203 29.7651 55.7934 29.8385 56.0859C30.206 57.1097 30.5735 57.914 31.3084 59.0109C31.6024 59.5228 31.0879 59.8884 30.7205 59.5228C30.206 59.084 29.7651 58.5722 29.3976 57.9872C29.2506 57.7678 28.8831 57.914 29.0301 58.2065C29.4711 59.3765 29.9855 60.3271 30.8675 61.4971C31.1614 61.9359 30.647 62.3746 30.2795 62.009C29.4711 61.2046 28.9566 60.4002 28.3687 59.5228C28.2217 59.2303 27.8542 59.4496 28.0012 59.8153C28.6626 61.424 29.2506 62.5208 30.353 63.9833C30.8675 64.4221 31.0145 64.7146 31.0145 65.0071ZM32.0434 98.059C31.4554 98.059 31.0145 97.9128 30.5 97.5471C25.5759 94.1103 21.3867 89.6498 18.2265 84.458C18.153 84.3117 18.0795 84.3117 17.859 84.3117C17.6385 84.3849 17.4916 84.3849 17.2711 84.3849C17.1241 84.3849 17.0506 84.5311 17.1976 84.6774C20.5783 90.3079 24.9879 95.0609 30.4265 98.644C30.941 99.0096 31.3819 99.1559 32.0434 99.1559C32.7048 99.1559 33.1458 99.0096 33.6602 98.644C39.0253 94.9878 43.5084 90.3079 46.8892 84.6774C46.9626 84.5311 46.8892 84.3849 46.8157 84.3849C46.5952 84.3849 46.4482 84.3117 46.2277 84.3117C46.0807 84.3117 46.0072 84.3117 45.9337 84.458C42.847 89.6498 38.6578 94.1103 33.6602 97.5471C33.0723 97.9128 32.6313 98.059 32.0434 98.059ZM29.6916 87.7486C29.3241 89.1379 29.2506 90.0154 29.2506 91.2585C29.2506 91.7704 28.7361 91.9166 28.3687 91.6972C25.5759 89.5035 23.0771 86.7979 20.6518 83.6536C20.5048 83.5074 20.3578 83.5074 20.1373 83.5805C20.1373 83.5805 20.0638 83.5805 20.0638 83.6536C19.9169 83.7267 19.8434 83.9461 19.9169 84.1655C22.8566 88.9185 26.7518 93.0135 31.3084 96.1578C31.5289 96.304 31.7494 96.3772 31.9699 96.3772C32.1904 96.3772 32.4108 96.304 32.6313 96.1578C37.1879 92.9403 41.0831 88.8454 44.0229 84.1655C44.1699 83.9461 44.0964 83.7999 43.8759 83.6536L43.8024 83.5805C43.5819 83.4342 43.3614 83.4342 43.2145 83.6536C41.9651 85.1892 40.6422 86.4323 39.0988 87.6754C38.7313 87.9679 38.2904 87.5292 38.5843 87.1636C39.9072 85.7011 40.9361 84.3849 41.9651 82.7761C42.112 82.5568 42.0385 82.3374 41.8916 82.2643L41.8181 82.1911C41.6711 82.0449 41.5241 82.0449 41.3771 82.1911C39.7602 84.1655 38.0699 85.7011 36.5265 86.7248C35.6446 87.3098 34.8361 87.6023 33.9542 87.7486C33.7337 87.8217 33.5867 87.8948 33.5867 88.1873C33.9542 91.4779 33.2193 93.4522 31.8229 93.4522C30.4265 93.4522 29.6916 91.4047 30.1325 87.9679C30.4265 87.3098 29.8386 87.2367 29.6916 87.7486ZM49.094 76.8531C48.8735 78.0231 48.2855 78.0231 48.212 76.8531C48.1385 76.1219 48.212 75.1713 48.4325 74.44C48.653 73.6357 49.094 73.7088 49.1675 74.44C49.3145 75.0981 49.241 76.1219 49.094 76.8531ZM47.0361 74.9519C46.5952 74.8788 46.5217 74.0013 46.5952 73.1969C46.6687 72.3926 47.0361 71.5882 47.4036 71.5882C47.7711 71.6613 47.9916 72.4657 47.8446 73.27C47.7711 74.2206 47.4771 75.025 47.0361 74.9519ZM13.5229 75.8294C13.2289 76.9994 13.8169 77.2187 14.3313 76.195C14.6253 75.5369 14.9928 74.6594 15.0663 73.855C15.1398 73.0507 14.7723 72.9044 14.4048 73.5625C14.0373 74.1475 13.6699 75.1713 13.5229 75.8294ZM16.1687 74.9519C16.6096 75.0981 16.9771 74.2938 17.2711 73.4894C17.4916 72.6851 17.4916 71.8076 17.1241 71.7344C16.7566 71.6613 16.2422 72.3194 16.0217 73.1238C15.7277 73.9282 15.7277 74.8056 16.1687 74.9519ZM45.0518 14.2591C45.3458 14.0398 45.6398 13.9666 46.0072 14.0398L46.7422 14.2591C47.0361 14.3323 47.2566 14.5516 47.2566 14.9173L47.4036 15.7947C47.4771 16.1604 47.3301 16.526 47.1096 16.6722L31.0879 28.5183C30.1325 28.5183 29.4711 28.4452 28.5892 28.2989L45.0518 14.2591ZM51.5193 17.0378C51.8132 16.8185 52.1072 16.8185 52.4747 16.9647L53.2096 17.2572C53.5036 17.4035 53.6506 17.6228 53.6506 17.9885V18.8659C53.6506 19.3047 53.4301 19.5972 53.2096 19.7434L32.1904 31.297C32.0434 31.3701 31.8229 31.3701 31.6759 31.297L31.2349 31.0776C31.0879 31.0045 31.0145 30.8582 31.0145 30.6389V30.127C31.0145 29.9808 31.0879 29.6883 31.3084 29.6151L51.5193 17.0378ZM32.0434 42.7774C36.306 42.7774 40.7892 43.9474 43.7289 46.068C44.7578 46.7992 45.5663 47.7498 46.1542 48.8467C47.8446 51.8448 48.7265 56.4516 48.7265 61.2046C48.7265 64.5683 48.212 67.7126 47.4036 70.5645C47.3301 70.7107 47.4036 70.7838 47.5506 70.7838C48.1385 70.7838 48.506 70.7107 48.8735 71.2226C49.3879 71.8807 49.6819 73.27 49.7554 74.8056C49.8289 76.3412 49.5349 77.7306 49.094 78.3887C48.8 78.8274 48.5795 78.9006 47.9181 78.9006C47.2566 78.9006 47.0361 78.9006 46.7422 78.4618C46.3012 77.8768 46.0072 76.78 45.9337 75.4638C45.9337 75.2444 45.7132 75.1713 45.6398 75.3906C44.9048 76.9994 44.0229 78.4618 43.141 79.7781C43.0675 79.9243 43.0675 80.0705 43.141 80.1437C44.2434 81.0212 45.4193 81.8255 46.7422 82.6299C48.359 83.2149 49.9024 83.6536 51.3723 84.0924C51.8133 84.2386 51.7398 84.8236 51.2988 84.8236C50.5639 84.8236 49.8289 84.8236 49.094 84.7505C48.947 84.7505 48.7265 84.8236 48.5795 85.043C45.1253 91.1123 40.2747 96.2309 34.5422 100.18C33.6602 100.765 32.8518 101.057 31.8964 101.057C30.941 101.057 30.1325 100.765 29.2506 100.18C23.5181 96.304 18.6675 91.1123 15.2132 85.043C15.0663 84.8236 14.8458 84.7505 14.6988 84.7505C13.9638 84.8236 13.3024 84.8236 12.494 84.8236C12.053 84.8236 11.9795 84.2386 12.4205 84.0924C13.9638 83.7267 15.4337 83.2149 17.0506 82.6299C18.3735 81.8987 19.4759 81.1674 20.5048 80.2899C20.7253 80.1437 20.7253 79.8512 20.5783 79.6318C19.5494 78.0231 18.5205 76.2681 17.712 74.2938C17.6385 74.0744 17.4181 74.0744 17.3446 74.2938C17.2711 74.5863 17.1241 74.9519 16.9771 75.2444C16.3157 76.6337 15.5072 77.8037 14.7723 78.2425C14.3313 78.535 14.0373 78.4618 13.5229 78.2425C12.9349 78.0231 12.7145 77.8037 12.641 77.2918C12.494 76.4875 12.7879 75.0981 13.3759 73.7088C14.0373 72.3194 14.8458 71.1494 15.5807 70.7107C15.7277 70.5645 15.8747 70.5645 16.0217 70.4913C16.2422 70.4913 16.3157 70.3451 16.2422 70.1257C15.5072 67.347 15.0663 64.4221 15.0663 61.1315C15.0663 56.3784 15.9482 51.7716 17.6385 48.7736C18.2265 47.6767 19.0349 46.7261 20.0638 45.9949C23.2976 44.0205 27.7807 42.7774 32.0434 42.7774Z" fill="#030304"/>
    <path fill-rule="evenodd" clip-rule="evenodd" d="M211.736 44.3861V81.3868H233.123C233.784 81.3868 234.299 80.8749 234.299 80.2168C234.299 79.6318 233.784 79.0468 233.123 79.0468H213.941V63.7639H233.123C233.784 63.7639 234.299 63.2521 234.299 62.594C234.299 61.9359 233.784 61.424 233.123 61.424H213.941V46.653H233.123C233.784 46.653 234.299 46.1411 234.299 45.483C234.299 44.8249 233.784 44.313 233.123 44.313H211.736V44.3861ZM210.413 82.6299V42.9968H233.123C233.784 42.9968 234.299 42.4849 234.299 41.8268C234.299 41.1687 233.784 40.6568 233.123 40.6568H209.605C208.796 40.6568 208.135 41.3149 208.135 42.0462V83.4342C208.135 84.1655 208.796 84.8236 209.605 84.8236H233.123C233.784 84.8236 234.299 84.3117 234.299 83.6536C234.299 83.0686 233.784 82.4836 233.123 82.4836H210.413V82.6299ZM234.299 76.6337C234.299 75.9756 233.784 75.4638 233.123 75.4638H217.616V67.4201H233.123C233.784 67.4201 234.299 66.9083 234.299 66.2502C234.299 65.592 233.784 65.0802 233.123 65.0802H215.337V77.7306H233.123C233.784 77.7306 234.299 77.2187 234.299 76.6337ZM160.584 84.0192C160.584 84.6774 161.099 85.1892 161.76 85.1892C162.422 85.1892 162.936 84.6774 162.936 84.0192V41.6806C162.936 41.0224 162.422 40.5106 161.76 40.5106C161.099 40.5106 160.584 41.0224 160.584 41.6806V84.0192ZM201.447 84.0192C201.447 84.6774 200.933 85.1892 200.271 85.1892C199.61 85.1892 199.095 84.6774 199.095 84.0192V41.6806C199.095 41.0224 199.61 40.5106 200.271 40.5106C200.933 40.5106 201.447 41.0224 201.447 41.6806V84.0192ZM181.016 66.4695L195.714 41.1687C196.229 40.2912 197.772 40.4375 197.772 41.7537C197.772 84.0924 197.772 84.0924 197.772 84.0924C197.772 84.7505 197.258 85.2623 196.596 85.2623C195.935 85.2623 195.42 84.7505 195.42 84.0924V49.8704L195.788 45.0443C195.788 44.898 195.641 44.8249 195.567 44.9711L193.51 49.2854L181.236 70.4182C181.163 70.5645 181.016 70.6376 180.869 70.6376C180.722 70.6376 180.575 70.5645 180.501 70.4182L168.228 49.2854L166.17 44.9711C166.096 44.8249 165.876 44.898 165.949 45.0443L166.317 49.8704V84.0192C166.317 84.6774 165.802 85.1892 165.141 85.1892C164.48 85.1892 163.965 84.6774 163.965 84.0192C163.965 84.0192 163.965 84.0192 163.965 41.6806C163.965 40.3643 165.582 40.2181 166.023 41.0956L181.016 66.4695ZM181.016 63.4715C181.163 63.4715 181.31 63.3983 181.383 63.2521L193.583 42.2655C194.318 41.0956 192.334 39.8525 191.599 41.0956L181.016 59.2303L170.433 41.0224C169.698 39.7793 167.713 40.9493 168.448 42.1924L180.648 63.179C180.722 63.3252 180.869 63.4715 181.016 63.4715ZM181.016 73.6357L168.448 52.0641C168.228 51.6985 167.787 51.8448 167.787 52.2104V84.0192C167.787 84.6774 168.301 85.1892 168.963 85.1892C169.624 85.1892 170.139 84.6774 170.139 84.0192V63.3252L169.771 58.499C169.771 58.3528 169.918 58.2797 169.992 58.4259L172.049 62.7402L179.987 76.4875C180.207 76.8531 180.575 77.0725 181.016 76.9994C181.383 76.9994 181.824 76.8531 182.045 76.4875L189.982 62.7402L192.04 58.4259C192.113 58.2797 192.334 58.3528 192.26 58.499L191.893 63.3252V84.0192C191.893 84.6774 192.407 85.1892 193.069 85.1892C193.73 85.1892 194.245 84.6774 194.245 84.0192V52.2104C194.245 51.8448 193.804 51.6985 193.583 52.0641L181.016 73.6357ZM217.616 57.914V50.236H233.123C233.784 50.236 234.299 49.7242 234.299 49.0661C234.299 48.4079 233.784 47.8961 233.123 47.8961H215.337V60.1078H233.123C233.784 60.1078 234.299 59.5959 234.299 58.9378C234.299 58.2797 233.784 57.7678 233.123 57.7678H217.616V57.914Z" fill="#98398D"/>
    <path fill-rule="evenodd" clip-rule="evenodd" d="M127.439 48.1155V77.6575C127.439 80.0706 128.688 82.3374 130.893 83.6536C132.289 84.458 133.98 84.9698 135.743 84.9698H141.255C143.019 84.9698 144.636 84.5311 146.106 83.6536C148.311 82.4105 149.56 80.0706 149.56 77.6575V48.1155C149.56 47.1648 149.34 46.2142 148.972 45.3367L151.177 43.143C151.545 42.7774 151.545 42.1924 151.177 41.8268L148.605 39.2675C148.237 38.9019 147.649 38.9019 147.282 39.2675L144.93 41.6074C143.828 41.1687 142.578 40.8762 141.255 40.8762H135.743C133.98 40.8762 132.363 41.3149 130.893 42.1924C128.688 43.4355 127.439 45.7755 127.439 48.1155ZM77.9771 79.4124H86.2819C88.0458 79.4124 89.6626 78.9737 91.1325 78.0962C93.3373 76.8531 94.5867 74.5131 94.5867 72.1001V48.1155C94.5867 45.7024 93.3373 43.4355 91.1325 42.1193C89.7361 41.3149 88.0458 40.8031 86.2819 40.8031H73.347C72.8325 40.8031 72.3916 41.2418 72.3916 41.7537V83.9461C72.3916 84.458 72.8325 84.8967 73.347 84.8967H77.0217C77.5361 84.8967 77.9771 84.458 77.9771 83.9461V79.4124ZM77.9771 46.3605H87.3108C88.2663 46.3605 89.0747 47.1648 89.0747 48.1155V72.1732C89.0747 73.1238 88.2663 73.9282 87.3108 73.9282H77.9771V46.3605ZM116.341 65.6652H105.243V84.0192C105.243 84.5311 104.802 84.9698 104.288 84.9698H100.613C100.099 84.9698 99.6578 84.5311 99.6578 84.0192V41.8268C99.6578 41.3149 100.099 40.8762 100.613 40.8762H104.288C104.802 40.8762 105.243 41.3149 105.243 41.8268V60.1809H116.341V41.8268C116.341 41.3149 116.782 40.8762 117.296 40.8762H120.971C121.486 40.8762 121.927 41.3149 121.927 41.8268V84.0192C121.927 84.5311 121.486 84.9698 120.971 84.9698H117.296C116.782 84.9698 116.341 84.5311 116.341 84.0192V65.6652ZM142.284 46.3605H134.714C133.759 46.3605 132.951 47.1648 132.951 48.1155V77.6575C132.951 78.6081 133.759 79.4124 134.714 79.4124H142.284C143.24 79.4124 144.048 78.6081 144.048 77.6575V48.1155C144.048 47.1648 143.24 46.3605 142.284 46.3605Z" fill="black"/>
</svg>
