<svg width="32" height="19" viewBox="0 0 32 19" fill="none" xmlns="http://www.w3.org/2000/svg">
    <path d="M5 3.39652C8.04832 3.01091 16.6968 2.74527 14.3273 15L17.0149 14.7856C15.8376 7.23176 18.3001 3.38017 26 3.01091C13.2293 -3.92388 5.95825 3.27524 5 3.39652Z" fill="#FAC415"/>
    <path d="M17.4335 13.4268C17.9134 14.7253 18.7677 15.8524 19.8882 16.6655C21.0087 17.4786 22.3452 17.9412 23.7286 17.9948C25.1121 18.0483 26.4803 17.6905 27.6604 16.9666C28.8405 16.2426 29.7794 15.185 30.3584 13.9275C30.9374 12.67 31.1305 11.269 30.9133 9.90176C30.6961 8.5345 30.0783 7.26235 29.1381 6.24616C28.1979 5.22997 26.9774 4.51538 25.6311 4.19275C24.2847 3.87011 22.8729 3.95392 21.5742 4.43359C19.8328 5.07744 18.4183 6.38649 17.6418 8.07291C16.8653 9.75934 16.7904 11.6851 17.4335 13.4268Z" fill="white"/>
    <path d="M8 18C11.866 18 15 14.866 15 11C15 7.13401 11.866 4 8 4C4.13401 4 1 7.13401 1 11C1 14.866 4.13401 18 8 18Z" fill="white"/>
    <path d="M8 12C8.55228 12 9 11.5523 9 11C9 10.4477 8.55228 10 8 10C7.44771 10 7 10.4477 7 11C7 11.5523 7.44771 12 8 12Z" fill="#EE6946"/>
    <path d="M24 12C24.5523 12 25 11.5523 25 11C25 10.4477 24.5523 10 24 10C23.4477 10 23 10.4477 23 11C23 11.5523 23.4477 12 24 12Z" fill="#00AF87"/>
    <path d="M30.4113 6.18455C30.7464 5.03184 31.2794 3.94642 31.9865 2.97699L26.641 2.97288C23.4443 0.968472 19.735 -0.0627468 15.9641 0.00457626C12.1008 -0.0783053 8.29684 0.96619 5.01593 3.01074L0 3.01355C0.700707 3.9756 1.23105 5.05113 1.56787 6.19315C0.326098 7.88248 -0.20474 9.9921 0.0893309 12.069C0.383402 14.146 1.47893 16.0246 3.1407 17.3016C4.80246 18.5786 6.89796 19.1521 8.97724 18.899C11.0565 18.6459 12.9538 17.5863 14.2617 15.9478L15.9664 18.5038L17.6875 15.9263C18.9873 17.5876 20.8886 18.6689 22.9792 18.9357C25.0697 19.2024 27.181 18.6331 28.8553 17.3513C30.5295 16.0694 31.6318 14.1783 31.9231 12.0879C32.2144 9.99759 31.6712 7.87649 30.4113 6.18455ZM23.7268 2.95054C21.7525 3.00798 19.8695 3.79643 18.4419 5.16348C17.0144 6.53053 16.1435 8.37909 15.9978 10.3518C15.8511 8.36061 14.9684 6.4957 13.5223 5.12135C12.0761 3.747 10.1703 2.96193 8.17716 2.91948C10.6441 1.89298 13.2929 1.37717 15.9641 1.40312C18.6319 1.36264 21.2778 1.89008 23.7268 2.95054ZM8.01665 17.3371C6.75206 17.3373 5.51583 16.9618 4.46432 16.2583C3.41281 15.5547 2.59324 14.5547 2.10929 13.3846C1.62533 12.2145 1.49872 10.927 1.74546 9.68484C1.9922 8.4427 2.60122 7.30174 3.49549 6.40627C4.38975 5.51079 5.52909 4.90102 6.76941 4.65409C8.00974 4.40715 9.29532 4.53413 10.4636 5.01898C11.6318 5.50383 12.6303 6.32475 13.3326 7.37794C14.035 8.43112 14.4097 9.66925 14.4094 10.9357C14.4072 12.633 13.7329 14.26 12.5345 15.4601C11.3361 16.6601 9.71134 17.3351 8.01665 17.3371ZM26.1969 16.9738C24.606 17.561 22.8473 17.4918 21.3074 16.7811C19.7674 16.0705 18.5721 14.7767 17.9842 13.184V13.1822C17.5467 11.9941 17.4708 10.7027 17.766 9.47139C18.0613 8.24005 18.7146 7.12404 19.6431 6.26448C20.5717 5.40493 21.7339 4.84042 22.9828 4.64233C24.2317 4.44424 25.5112 4.62148 26.6595 5.15162C27.8079 5.68176 28.7734 6.54101 29.4342 7.62071C30.0949 8.70041 30.4212 9.95209 30.3717 11.2175C30.3221 12.4829 29.8991 13.7051 29.156 14.7297C28.4129 15.7543 27.3831 16.5353 26.1969 16.9738Z" fill="black"/>
    <path d="M8.00584 7C7.21444 6.99885 6.44048 7.23248 5.7819 7.67133C5.12332 8.11018 4.60973 8.73453 4.3061 9.46537C4.00247 10.1962 3.92246 11.0007 4.0762 11.777C4.22993 12.5533 4.6105 13.2666 5.16974 13.8266C5.72898 14.3866 6.44176 14.768 7.21789 14.9228C7.99401 15.0775 8.7986 14.9986 9.52983 14.6959C10.2611 14.3932 10.8861 13.8804 11.3258 13.2224C11.7655 12.5644 12.0001 11.7908 12 10.9994C11.9983 9.9401 11.5771 8.92465 10.8285 8.17515C10.08 7.42565 9.06509 7.00312 8.00584 7ZM8.00584 13.6222C7.48697 13.6232 6.97946 13.4703 6.54753 13.1828C6.11561 12.8953 5.77868 12.4861 5.5794 12.007C5.38011 11.5279 5.32741 11.0005 5.42798 10.4915C5.52855 9.98247 5.77787 9.51471 6.14437 9.14743C6.51088 8.78014 6.9781 8.52983 7.48692 8.42818C7.99573 8.32653 8.52326 8.3781 9.00276 8.57637C9.48225 8.77464 9.89215 9.11069 10.1806 9.542C10.469 9.97332 10.623 10.4805 10.6231 10.9994C10.6215 11.6935 10.3454 12.3589 9.85511 12.8503C9.36478 13.3417 8.7 13.6192 8.00584 13.6222Z" fill="black"/>
    <path d="M24.0021 7C23.2108 6.99959 22.4372 7.23386 21.7792 7.67316C21.1211 8.11247 20.6081 8.73708 20.305 9.46799C20.002 10.1989 19.9225 11.0033 20.0767 11.7793C20.2308 12.5554 20.6117 13.2683 21.1711 13.8279C21.7305 14.3875 22.4433 14.7686 23.2193 14.9231C23.9953 15.0775 24.7997 14.9983 25.5307 14.6955C26.2617 14.3927 26.8865 13.88 27.326 13.222C27.7656 12.5641 28.0001 11.7906 28 10.9994C27.9986 9.93934 27.577 8.92311 26.8276 8.17343C26.0782 7.42375 25.0621 7.00177 24.0021 7ZM24.0021 13.6222C23.4834 13.6224 22.9763 13.4688 22.5449 13.1807C22.1136 12.8927 21.7773 12.4832 21.5787 12.0041C21.38 11.5249 21.3279 10.9976 21.429 10.4889C21.53 9.98014 21.7797 9.51278 22.1464 9.14592C22.513 8.77906 22.9803 8.52918 23.489 8.42787C23.9977 8.32656 24.525 8.37838 25.0042 8.57678C25.4835 8.77517 25.8931 9.11123 26.1814 9.54245C26.4696 9.97366 26.6235 10.4807 26.6236 10.9994C26.6227 11.6945 26.3462 12.3609 25.8548 12.8525C25.3635 13.3442 24.6972 13.621 24.0021 13.6222Z" fill="black"/>
</svg>