<svg width="24" height="34" viewBox="0 0 24 34" fill="none" xmlns="http://www.w3.org/2000/svg">
    <path d="M6.53063 25.1929C7.58199 26.5064 8.64859 28.152 9.20931 29.1485C9.89193 30.4436 10.1723 31.3182 10.6812 32.8785C10.9799 33.7379 11.2602 34 11.8545 34C12.5036 34 12.7992 33.5611 13.0277 32.8785C13.5001 31.4066 13.8688 30.2882 14.4448 29.2186C15.5815 27.1707 17.0198 25.3484 18.4186 23.5991C18.8026 23.1085 21.2557 20.2196 22.3589 17.9279C22.3589 17.9279 23.7059 15.4229 23.7059 11.9214C23.7059 8.64853 22.3741 6.37211 22.3741 6.37211L18.5222 7.40518L16.1757 13.5671L15.5967 14.4081L15.4748 14.5666L15.3163 14.7586L15.0543 15.0725L14.6703 15.4564L12.5858 17.1539L7.38696 20.1647L6.53063 25.1929Z" fill="#34A853"/>
    <path d="M1.15497 17.5074C2.43183 20.4146 4.86672 22.9531 6.53061 25.193L15.3376 14.7586C15.3376 14.7586 14.0943 16.3859 11.8544 16.3859C9.34946 16.3859 7.31989 14.3899 7.31989 11.8697C7.31989 10.1357 8.35296 8.94719 8.35296 8.94719L2.38003 10.541L1.15497 17.5074Z" fill="#FBBC04"/>
    <path d="M15.4413 0.542431C18.3637 1.48713 20.8687 3.4649 22.3741 6.39042L15.3346 14.7769C15.3346 14.7769 16.3677 13.5701 16.3677 11.8544C16.3677 9.27937 14.1979 7.33816 11.8514 7.33816C9.6268 7.33816 8.34993 8.95025 8.34993 8.95025V3.65994L15.4413 0.542431Z" fill="#4285F4"/>
    <path d="M2.76401 4.23591C4.51322 2.15147 7.57892 0 11.8148 0C13.8627 0 15.4199 0.54244 15.4199 0.54244L8.34992 8.94721H3.34302L2.76401 4.23591Z" fill="#1A73E8"/>
    <path d="M1.15497 17.5074C1.15497 17.5074 0 15.2127 0 11.9062C0 8.77349 1.22506 6.03996 2.78229 4.25418L8.3682 8.96243L1.15497 17.5074Z" fill="#EA4335"/>
</svg>