<svg width="36" height="36" viewBox="0 0 36 36" fill="none" xmlns="http://www.w3.org/2000/svg">
    <path fill-rule="evenodd" clip-rule="evenodd" d="M18 36C27.9215 36 36 27.9215 36 18C36 8.0785 27.9215 0 18 0C8.0785 0 0 8.0785 0 18C0 27.9215 8.0785 36 18 36Z" fill="white"/>
    <path fill-rule="evenodd" clip-rule="evenodd" d="M17.6073 6H30V18.3927C30 24.7927 24.7636 30 18.3927 30H6V17.6073C6 11.2364 11.2364 6 17.6073 6Z" fill="#2F3640"/>
    <path fill-rule="evenodd" clip-rule="evenodd" d="M18 26C22.4031 26 26 22.4031 26 18C26 13.5969 22.4031 10 18 10C13.5969 10 10 13.5969 10 18C10 22.4031 13.5969 26 18 26Z" fill="white"/>
</svg>