<svg width="47" height="47" viewBox="0 0 47 47" fill="none" xmlns="http://www.w3.org/2000/svg">
    <path d="M34.1873 9.67735C31.2027 7.35599 27.4644 5.96921 23.3945 5.96921C13.6568 5.96921 5.78831 13.8679 5.78831 23.5754C5.78831 33.313 13.687 41.1815 23.3945 41.1815C27.8563 41.1815 31.8961 39.5234 35.0013 36.78H22.2489L22.2187 33.0417C29.9063 26.3489 34.6094 21.857 34.6094 17.4856C34.6094 15.8576 34.0064 13.8076 31.2027 13.8076C29.0019 13.8076 26.8916 15.0738 27.2534 20.4099H22.7915C21.6761 14.2296 25.0224 9.34573 31.4439 9.34573C32.4387 9.34573 33.3432 9.43617 34.1873 9.67735ZM41.0006 23.5452C41.0006 21.3746 40.5786 19.3246 39.8852 17.3951C39.7043 23.696 33.2829 28.5799 29.5144 31.8056H38.9506C40.2469 29.3637 41.0006 26.56 41.0006 23.5452Z" fill="white"/>
</svg>