<svg width="23" height="37" viewBox="0 0 23 37" fill="none" xmlns="http://www.w3.org/2000/svg">
    <path fill-rule="evenodd" clip-rule="evenodd" d="M10 37L12.5133 22.0982L23 13C23 13 22.3587 17.2162 20.972 19.7937C19.5853 22.3542 17.0893 26.5533 17.0893 26.5533L10 37Z" fill="#E00000"/>
    <path fill-rule="evenodd" clip-rule="evenodd" d="M11.5 0C17.853 0 23 5.14697 23 11.5C23 17.853 17.853 23 11.5 23C5.14697 23 0 17.853 0 11.5C0 5.14697 5.14697 0 11.5 0ZM11.5 6.91359C8.95199 6.91359 6.8966 8.96898 6.8966 11.517C6.8966 14.065 8.95199 16.1204 11.5 16.1204C14.048 16.1204 16.1034 14.065 16.1034 11.517C16.1034 8.96898 14.048 6.91359 11.5 6.91359Z" fill="#FF3333"/>
</svg>