<svg width="23" height="22" viewBox="0 0 23 22" fill="none" xmlns="http://www.w3.org/2000/svg">
<path d="M22.8967 8.24004C22.6216 7.3969 21.8708 6.8521 20.984 6.8521H15.2647L13.4637 1.38271C13.1869 0.541932 12.4376 0 11.5533 0C11.5505 0 11.5476 -2.45622e-08 11.5447 4.46856e-05C10.6568 0.00353208 9.90786 0.552171 9.63678 1.39777L7.88825 6.8521H2.1214C1.23229 6.8521 0.480894 7.39873 0.207179 8.24464C-0.0665817 9.09056 0.222157 9.97377 0.942795 10.4946L5.60879 13.8673L3.81279 19.3215C3.53482 20.1657 3.81873 21.0501 4.53606 21.5748C4.89634 21.8383 5.30986 21.9701 5.72365 21.9701C6.13369 21.97 6.54395 21.8406 6.90244 21.5814L11.5765 18.203L16.1951 21.5757C16.9116 22.099 17.8396 22.1015 18.5591 21.5823C19.2785 21.0631 19.5684 20.1816 19.2976 19.3367L17.5441 13.8673L22.1705 10.4889C22.8867 9.96585 23.1718 9.08314 22.8967 8.24004ZM21.3795 9.40563L15.9714 13.355L18.0202 19.7461C18.1581 20.1763 17.8666 20.4278 17.774 20.4946C17.6814 20.5615 17.3508 20.7589 16.986 20.4924L11.5805 16.545L6.11666 20.4944C5.74999 20.7594 5.42025 20.5597 5.32788 20.4921C5.23555 20.4246 4.94525 20.1708 5.0868 19.741L7.18966 13.3549L1.72853 9.4076C1.36164 9.14238 1.44811 8.76646 1.48334 8.65759C1.51857 8.54872 1.66871 8.19341 2.1214 8.19341H8.86683L10.9141 1.80723C11.0521 1.37672 11.4358 1.3418 11.5501 1.34131H11.5524C11.6696 1.34131 12.0493 1.37569 12.1898 1.80222L14.2943 8.19341H20.984C21.4356 8.19341 21.5862 8.54751 21.6216 8.65607C21.657 8.76462 21.7441 9.13938 21.3795 9.40563Z" fill="#F8C200"/>
</svg>
